<svg width="36" height="47" viewBox="0 0 36 47" fill="none" xmlns="http://www.w3.org/2000/svg">
<mask id="path-1-outside-1_55_24" maskUnits="userSpaceOnUse" x="0" y="0" width="36" height="47" fill="black">
<rect fill="white" width="36" height="47"/>
<path fill-rule="evenodd" clip-rule="evenodd" d="M8.89317 20.7643L6.19884 18.07L18.057 6.21187L29.5788 17.7337L26.5468 20.7656L21.0826 15.3013C21.0845 15.2583 21.0855 15.2151 21.0855 15.1717C21.0855 13.5623 19.7808 12.2576 18.1714 12.2576C16.562 12.2576 15.2574 13.5623 15.2574 15.1717C15.2574 16.6232 16.3186 17.8268 17.7075 18.049L29.3001 29.6416L28.0045 30.9371L24.8433 27.7759C23.9979 26.9305 22.6273 26.9305 21.7819 27.7759C20.9365 28.6213 20.9365 29.9919 21.7819 30.8373L24.9431 33.9985L17.7913 41.1503L6.21064 29.5696L8.89317 26.8871L14.4342 32.4281C14.5689 33.9125 15.8168 35.0755 17.3362 35.0755C18.9456 35.0755 20.2503 33.7708 20.2503 32.1614C20.2503 30.5655 18.9673 29.2692 17.3765 29.2477L11.9545 23.8257L13.3214 22.4589L15.3186 24.4561C16.1639 25.3015 17.5346 25.3015 18.3799 24.4561C19.2253 23.6107 19.2253 22.2401 18.3799 21.3947L14.8956 17.9104C14.4021 17.4168 13.7294 17.2114 13.0868 17.2942C12.5944 17.3352 12.1134 17.544 11.7367 17.9207L8.89317 20.7643ZM17.7965 46.35C17.2321 46.3581 16.6652 46.1469 16.2345 45.7162L1.63411 31.1158C1.04596 30.5277 0.867002 29.6853 1.09723 28.9424C1.19507 28.6011 1.37843 28.279 1.64732 28.0102L5.83179 23.8257L1.63411 19.628C1.2047 19.1986 0.993414 18.6337 1.00024 18.0709C0.992936 17.5075 1.20422 16.9419 1.63409 16.512L16.5118 1.63426C17.0121 1.13396 17.6964 0.929743 18.3468 1.0216C18.8074 1.07937 19.2529 1.28508 19.6066 1.63871L34.207 16.2391C34.8765 16.9086 35.0158 17.9075 34.6248 18.7141L34.6729 18.7622L34.5031 18.9321C34.4198 19.0627 34.3211 19.1864 34.207 19.3005C34.0929 19.4146 33.9692 19.5133 33.8386 19.5966L29.6082 23.8269L33.8795 28.0982C34.0677 28.2864 34.214 28.5006 34.3184 28.7293C34.6931 29.531 34.5494 30.515 33.8875 31.1769L19.3483 45.7161C18.9202 46.1442 18.3575 46.3555 17.7965 46.35Z"/>
</mask>
<path fill-rule="evenodd" clip-rule="evenodd" d="M8.89317 20.7643L6.19884 18.07L18.057 6.21187L29.5788 17.7337L26.5468 20.7656L21.0826 15.3013C21.0845 15.2583 21.0855 15.2151 21.0855 15.1717C21.0855 13.5623 19.7808 12.2576 18.1714 12.2576C16.562 12.2576 15.2574 13.5623 15.2574 15.1717C15.2574 16.6232 16.3186 17.8268 17.7075 18.049L29.3001 29.6416L28.0045 30.9371L24.8433 27.7759C23.9979 26.9305 22.6273 26.9305 21.7819 27.7759C20.9365 28.6213 20.9365 29.9919 21.7819 30.8373L24.9431 33.9985L17.7913 41.1503L6.21064 29.5696L8.89317 26.8871L14.4342 32.4281C14.5689 33.9125 15.8168 35.0755 17.3362 35.0755C18.9456 35.0755 20.2503 33.7708 20.2503 32.1614C20.2503 30.5655 18.9673 29.2692 17.3765 29.2477L11.9545 23.8257L13.3214 22.4589L15.3186 24.4561C16.1639 25.3015 17.5346 25.3015 18.3799 24.4561C19.2253 23.6107 19.2253 22.2401 18.3799 21.3947L14.8956 17.9104C14.4021 17.4168 13.7294 17.2114 13.0868 17.2942C12.5944 17.3352 12.1134 17.544 11.7367 17.9207L8.89317 20.7643ZM17.7965 46.35C17.2321 46.3581 16.6652 46.1469 16.2345 45.7162L1.63411 31.1158C1.04596 30.5277 0.867002 29.6853 1.09723 28.9424C1.19507 28.6011 1.37843 28.279 1.64732 28.0102L5.83179 23.8257L1.63411 19.628C1.2047 19.1986 0.993414 18.6337 1.00024 18.0709C0.992936 17.5075 1.20422 16.9419 1.63409 16.512L16.5118 1.63426C17.0121 1.13396 17.6964 0.929743 18.3468 1.0216C18.8074 1.07937 19.2529 1.28508 19.6066 1.63871L34.207 16.2391C34.8765 16.9086 35.0158 17.9075 34.6248 18.7141L34.6729 18.7622L34.5031 18.9321C34.4198 19.0627 34.3211 19.1864 34.207 19.3005C34.0929 19.4146 33.9692 19.5133 33.8386 19.5966L29.6082 23.8269L33.8795 28.0982C34.0677 28.2864 34.214 28.5006 34.3184 28.7293C34.6931 29.531 34.5494 30.515 33.8875 31.1769L19.3483 45.7161C18.9202 46.1442 18.3575 46.3555 17.7965 46.35Z" fill="#00C2FF"/>
<path d="M6.19884 18.07L5.98671 17.8579L5.77458 18.07L5.98671 18.2821L6.19884 18.07ZM8.89317 20.7643L8.68103 20.9764L8.89317 21.1886L9.1053 20.9764L8.89317 20.7643ZM18.057 6.21187L18.2691 5.99973L18.057 5.7876L17.8448 5.99973L18.057 6.21187ZM29.5788 17.7337L29.7909 17.9458L30.003 17.7337L29.7909 17.5215L29.5788 17.7337ZM26.5468 20.7656L26.3347 20.9777L26.5468 21.1898L26.759 20.9777L26.5468 20.7656ZM21.0826 15.3013L20.7829 15.2882L20.7771 15.4201L20.8705 15.5135L21.0826 15.3013ZM17.7075 18.049L17.9197 17.8369L17.8509 17.7681L17.7549 17.7528L17.7075 18.049ZM29.3001 29.6416L29.5122 29.8537L29.7244 29.6416L29.5122 29.4294L29.3001 29.6416ZM28.0045 30.9371L27.7924 31.1493L28.0045 31.3614L28.2166 31.1493L28.0045 30.9371ZM21.7819 27.7759L21.994 27.988L21.994 27.988L21.7819 27.7759ZM21.7819 30.8373L21.5698 31.0494L21.5698 31.0494L21.7819 30.8373ZM24.9431 33.9985L25.1553 34.2106L25.3674 33.9985L25.1553 33.7864L24.9431 33.9985ZM17.7913 41.1503L17.5792 41.3624L17.7913 41.5746L18.0035 41.3624L17.7913 41.1503ZM6.21064 29.5696L5.99851 29.3575L5.78638 29.5696L5.99851 29.7817L6.21064 29.5696ZM8.89317 26.8871L9.1053 26.6749L8.89317 26.4628L8.68103 26.6749L8.89317 26.8871ZM14.4342 32.4281L14.733 32.401L14.7232 32.2928L14.6464 32.216L14.4342 32.4281ZM17.3765 29.2477L17.1644 29.4598L17.2506 29.546L17.3725 29.5476L17.3765 29.2477ZM11.9545 23.8257L11.7424 23.6136L11.5303 23.8257L11.7424 24.0378L11.9545 23.8257ZM13.3214 22.4589L13.5335 22.2467L13.3214 22.0346L13.1092 22.2467L13.3214 22.4589ZM13.0868 17.2942L13.1117 17.5935L13.1251 17.5918L13.0868 17.2942ZM16.2345 45.7162L16.4467 45.5041L16.2345 45.7162ZM17.7965 46.35L17.7994 46.05L17.7922 46.0501L17.7965 46.35ZM1.63411 31.1158L1.42198 31.328L1.42198 31.328L1.63411 31.1158ZM1.09723 28.9424L1.38385 29.0313L1.38562 29.0251L1.09723 28.9424ZM1.64732 28.0102L1.85945 28.2223L1.85945 28.2223L1.64732 28.0102ZM5.83179 23.8257L6.04392 24.0378L6.25605 23.8257L6.04392 23.6136L5.83179 23.8257ZM1.63411 19.628L1.42198 19.8401L1.42198 19.8401L1.63411 19.628ZM1.00024 18.0709L1.30031 18.0745L1.30021 18.067L1.00024 18.0709ZM1.63409 16.512L1.42196 16.2999L1.42196 16.2999L1.63409 16.512ZM16.5118 1.63426L16.2997 1.42212L16.2997 1.42212L16.5118 1.63426ZM18.3468 1.0216L18.3049 1.31869L18.3095 1.31926L18.3468 1.0216ZM19.6066 1.63871L19.3944 1.85084L19.3944 1.85084L19.6066 1.63871ZM34.207 16.2391L34.4191 16.027L34.4191 16.027L34.207 16.2391ZM34.6248 18.7141L34.3549 18.5833L34.2618 18.7753L34.4127 18.9263L34.6248 18.7141ZM34.6729 18.7622L34.8851 18.9744L35.0972 18.7622L34.8851 18.5501L34.6729 18.7622ZM34.5031 18.9321L34.2909 18.72L34.2677 18.7432L34.2501 18.7708L34.5031 18.9321ZM34.207 19.3005L34.4191 19.5126L34.4191 19.5126L34.207 19.3005ZM33.8386 19.5966L33.6773 19.3436L33.6496 19.3613L33.6265 19.3844L33.8386 19.5966ZM29.6082 23.8269L29.3961 23.6148L29.184 23.8269L29.3961 24.0391L29.6082 23.8269ZM33.8795 28.0982L33.6673 28.3103L33.6673 28.3103L33.8795 28.0982ZM34.3184 28.7293L34.0455 28.8539L34.0466 28.8563L34.3184 28.7293ZM33.8875 31.1769L33.6754 30.9648L33.6754 30.9648L33.8875 31.1769ZM5.98671 18.2821L8.68103 20.9764L9.1053 20.5522L6.41098 17.8579L5.98671 18.2821ZM17.8448 5.99973L5.98671 17.8579L6.41098 18.2821L18.2691 6.424L17.8448 5.99973ZM29.7909 17.5215L18.2691 5.99973L17.8448 6.424L29.3666 17.9458L29.7909 17.5215ZM26.759 20.9777L29.7909 17.9458L29.3666 17.5215L26.3347 20.5534L26.759 20.9777ZM20.8705 15.5135L26.3347 20.9777L26.759 20.5534L21.2948 15.0892L20.8705 15.5135ZM20.7855 15.1717C20.7855 15.2108 20.7846 15.2496 20.7829 15.2882L21.3823 15.3145C21.3844 15.2671 21.3855 15.2195 21.3855 15.1717H20.7855ZM18.1714 12.5576C19.6151 12.5576 20.7855 13.728 20.7855 15.1717H21.3855C21.3855 13.3966 19.9465 11.9576 18.1714 11.9576V12.5576ZM15.5574 15.1717C15.5574 13.728 16.7277 12.5576 18.1714 12.5576V11.9576C16.3964 11.9576 14.9574 13.3966 14.9574 15.1717H15.5574ZM17.7549 17.7528C16.5092 17.5535 15.5574 16.4735 15.5574 15.1717H14.9574C14.9574 16.7729 16.128 18.1001 17.6601 18.3452L17.7549 17.7528ZM29.5122 29.4294L17.9197 17.8369L17.4954 18.2611L29.088 29.8537L29.5122 29.4294ZM28.2166 31.1493L29.5122 29.8537L29.088 29.4294L27.7924 30.725L28.2166 31.1493ZM24.6311 27.988L27.7924 31.1493L28.2166 30.725L25.0554 27.5638L24.6311 27.988ZM21.994 27.988C22.7222 27.2598 23.9029 27.2598 24.6311 27.988L25.0554 27.5638C24.0929 26.6012 22.5323 26.6012 21.5698 27.5638L21.994 27.988ZM21.994 30.6251C21.2658 29.8969 21.2658 28.7163 21.994 27.988L21.5698 27.5638C20.6072 28.5263 20.6072 30.0869 21.5698 31.0494L21.994 30.6251ZM25.1553 33.7864L21.994 30.6251L21.5698 31.0494L24.731 34.2106L25.1553 33.7864ZM18.0035 41.3624L25.1553 34.2106L24.731 33.7864L17.5792 40.9382L18.0035 41.3624ZM5.99851 29.7817L17.5792 41.3624L18.0035 40.9382L6.42277 29.3575L5.99851 29.7817ZM8.68103 26.6749L5.99851 29.3575L6.42277 29.7817L9.1053 27.0992L8.68103 26.6749ZM14.6464 32.216L9.1053 26.6749L8.68103 27.0992L14.2221 32.6403L14.6464 32.216ZM17.3362 34.7755C15.9734 34.7755 14.8538 33.7323 14.733 32.401L14.1355 32.4552C14.284 34.0927 15.6602 35.3755 17.3362 35.3755V34.7755ZM19.9503 32.1614C19.9503 33.6051 18.7799 34.7755 17.3362 34.7755V35.3755C19.1113 35.3755 20.5503 33.9365 20.5503 32.1614H19.9503ZM17.3725 29.5476C18.7994 29.567 19.9503 30.7298 19.9503 32.1614H20.5503C20.5503 30.4012 19.1352 28.9715 17.3806 28.9477L17.3725 29.5476ZM11.7424 24.0378L17.1644 29.4598L17.5886 29.0355L12.1667 23.6136L11.7424 24.0378ZM13.1092 22.2467L11.7424 23.6136L12.1667 24.0378L13.5335 22.671L13.1092 22.2467ZM15.5307 24.2439L13.5335 22.2467L13.1092 22.671L15.1064 24.6682L15.5307 24.2439ZM18.1678 24.2439C17.4396 24.9722 16.2589 24.9722 15.5307 24.2439L15.1064 24.6682C16.069 25.6307 17.6295 25.6307 18.5921 24.6682L18.1678 24.2439ZM18.1678 21.6068C18.896 22.3351 18.896 23.5157 18.1678 24.2439L18.5921 24.6682C19.5546 23.7057 19.5546 22.1451 18.5921 21.1826L18.1678 21.6068ZM14.6835 18.1225L18.1678 21.6068L18.5921 21.1826L15.1078 17.6983L14.6835 18.1225ZM13.1251 17.5918C13.6795 17.5203 14.2584 17.6975 14.6835 18.1225L15.1078 17.6983C14.5457 17.1362 13.7793 16.9025 13.0485 16.9967L13.1251 17.5918ZM11.9489 18.1329C12.2735 17.8082 12.6874 17.6285 13.1117 17.5932L13.0619 16.9952C12.5015 17.0419 11.9533 17.2799 11.5246 17.7086L11.9489 18.1329ZM9.1053 20.9764L11.9489 18.1329L11.5246 17.7086L8.68103 20.5522L9.1053 20.9764ZM16.0224 45.9284C16.5127 46.4187 17.1587 46.6592 17.8008 46.65L17.7922 46.0501C17.3055 46.0571 16.8177 45.8751 16.4467 45.5041L16.0224 45.9284ZM1.42198 31.328L16.0224 45.9284L16.4467 45.5041L1.84624 30.9037L1.42198 31.328ZM0.810679 28.8536C0.548796 29.6986 0.752024 30.658 1.42198 31.328L1.84624 30.9037C1.3399 30.3973 1.18521 29.672 1.38379 29.0312L0.810679 28.8536ZM1.43519 27.798C1.1294 28.1038 0.920348 28.4707 0.808844 28.8598L1.38562 29.0251C1.46979 28.7314 1.62747 28.4543 1.85945 28.2223L1.43519 27.798ZM5.61965 23.6136L1.43519 27.798L1.85945 28.2223L6.04392 24.0378L5.61965 23.6136ZM1.42198 19.8401L5.61965 24.0378L6.04392 23.6136L1.84624 19.4159L1.42198 19.8401ZM0.700261 18.0673C0.692496 18.7075 0.933105 19.3513 1.42198 19.8401L1.84624 19.4159C1.4763 19.0459 1.29433 18.5598 1.30022 18.0745L0.700261 18.0673ZM1.42196 16.2999C0.932553 16.7893 0.691955 17.4339 0.700264 18.0748L1.30021 18.067C1.29392 17.5812 1.47588 17.0945 1.84622 16.7241L1.42196 16.2999ZM16.2997 1.42212L1.42196 16.2999L1.84622 16.7241L16.7239 1.84639L16.2997 1.42212ZM18.3888 0.724545C17.649 0.620078 16.8694 0.852361 16.2997 1.42212L16.7239 1.84639C17.1548 1.41556 17.7437 1.23941 18.3049 1.31865L18.3888 0.724545ZM19.8187 1.42657C19.4163 1.02416 18.9085 0.78971 18.3842 0.723931L18.3095 1.31926C18.7062 1.36904 19.0896 1.54599 19.3944 1.85084L19.8187 1.42657ZM34.4191 16.027L19.8187 1.42657L19.3944 1.85084L33.9948 16.4512L34.4191 16.027ZM34.8948 18.845C35.3397 17.927 35.1817 16.7896 34.4191 16.027L33.9948 16.4512C34.5712 17.0276 34.6918 17.8881 34.3549 18.5833L34.8948 18.845ZM34.8851 18.5501L34.837 18.502L34.4127 18.9263L34.4608 18.9744L34.8851 18.5501ZM34.7152 19.1442L34.8851 18.9744L34.4608 18.5501L34.2909 18.72L34.7152 19.1442ZM34.4191 19.5126C34.5487 19.383 34.6611 19.2423 34.756 19.0934L34.2501 18.7708C34.1785 18.8832 34.0934 18.9898 33.9948 19.0884L34.4191 19.5126ZM33.9999 19.8495C34.1488 19.7546 34.2895 19.6422 34.4191 19.5126L33.9948 19.0884C33.8963 19.1869 33.7897 19.272 33.6773 19.3436L33.9999 19.8495ZM29.8204 24.0391L34.0507 19.8087L33.6265 19.3844L29.3961 23.6148L29.8204 24.0391ZM34.0916 27.8861L29.8204 23.6148L29.3961 24.0391L33.6673 28.3103L34.0916 27.8861ZM34.5913 28.6047C34.4722 28.3439 34.3055 28.0999 34.0916 27.8861L33.6673 28.3103C33.8298 28.4728 33.9557 28.6573 34.0455 28.8539L34.5913 28.6047ZM34.0996 31.389C34.8536 30.635 35.0166 29.5146 34.5902 28.6022L34.0466 28.8563C34.3696 29.5473 34.2452 30.3949 33.6754 30.9648L34.0996 31.389ZM19.5604 45.9282L34.0996 31.389L33.6754 30.9648L19.1362 45.504L19.5604 45.9282ZM17.7936 46.65C18.4318 46.6562 19.0731 46.4156 19.5604 45.9282L19.1362 45.504C18.7674 45.8728 18.2832 46.0547 17.7994 46.0501L17.7936 46.65Z" fill="black" mask="url(#path-1-outside-1_55_24)"/>
<circle cx="17.3418" cy="32.1626" r="1" transform="rotate(-44.9216 17.3418 32.1626)" fill="black" stroke="white" stroke-width="1.33033"/>
<circle cx="18.1757" cy="15.1783" r="1" transform="rotate(-44.9216 18.1757 15.1783)" fill="white" stroke="black" stroke-width="1.33033"/>
</svg>
