<svg width="150" height="55" viewBox="0 0 150 55" fill="none" xmlns="http://www.w3.org/2000/svg">
<mask id="path-1-outside-1_55_22" maskUnits="userSpaceOnUse" x="8" y="3" width="36" height="47" fill="black">
<rect fill="white" x="8" y="3" width="36" height="47"/>
<path fill-rule="evenodd" clip-rule="evenodd" d="M16.8932 23.7643L14.1988 21.07L26.057 9.21187L37.5788 20.7337L34.5468 23.7656L29.0826 18.3013C29.0845 18.2583 29.0855 18.2151 29.0855 18.1717C29.0855 16.5623 27.7808 15.2576 26.1714 15.2576C24.562 15.2576 23.2574 16.5623 23.2574 18.1717C23.2574 19.6232 24.3186 20.8268 25.7075 21.049L37.3001 32.6416L36.0045 33.9371L32.8433 30.7759C31.9979 29.9305 30.6273 29.9305 29.7819 30.7759C28.9365 31.6213 28.9365 32.9919 29.7819 33.8373L32.9431 36.9985L25.7913 44.1503L14.2106 32.5696L16.8932 29.8871L22.4342 35.4281C22.5689 36.9125 23.8168 38.0755 25.3362 38.0755C26.9456 38.0755 28.2503 36.7708 28.2503 35.1614C28.2503 33.5655 26.9673 32.2692 25.3765 32.2477L19.9545 26.8257L21.3214 25.4589L23.3186 27.4561C24.1639 28.3015 25.5346 28.3015 26.3799 27.4561C27.2253 26.6107 27.2253 25.2401 26.3799 24.3947L22.8956 20.9104C22.4021 20.4168 21.7294 20.2114 21.0868 20.2942C20.5944 20.3352 20.1134 20.544 19.7367 20.9207L16.8932 23.7643ZM25.7965 49.35C25.2321 49.3581 24.6652 49.1469 24.2345 48.7162L9.63411 34.1158C9.04596 33.5277 8.867 32.6853 9.09723 31.9424C9.19507 31.6011 9.37843 31.279 9.64732 31.0102L13.8318 26.8257L9.63411 22.628C9.2047 22.1986 8.99341 21.6337 9.00024 21.0709C8.99294 20.5075 9.20422 19.9419 9.63409 19.512L24.5118 4.63426C25.0121 4.13396 25.6964 3.92974 26.3468 4.0216C26.8074 4.07937 27.2529 4.28508 27.6066 4.63871L42.207 19.2391C42.8765 19.9086 43.0158 20.9075 42.6248 21.7141L42.6729 21.7622L42.5031 21.9321C42.4198 22.0627 42.3211 22.1864 42.207 22.3005C42.0929 22.4146 41.9692 22.5133 41.8386 22.5966L37.6082 26.8269L41.8795 31.0982C42.0677 31.2864 42.214 31.5006 42.3184 31.7293C42.6931 32.531 42.5494 33.515 41.8875 34.1769L27.3483 48.7161C26.9202 49.1442 26.3575 49.3555 25.7965 49.35Z"/>
</mask>
<path fill-rule="evenodd" clip-rule="evenodd" d="M16.8932 23.7643L14.1988 21.07L26.057 9.21187L37.5788 20.7337L34.5468 23.7656L29.0826 18.3013C29.0845 18.2583 29.0855 18.2151 29.0855 18.1717C29.0855 16.5623 27.7808 15.2576 26.1714 15.2576C24.562 15.2576 23.2574 16.5623 23.2574 18.1717C23.2574 19.6232 24.3186 20.8268 25.7075 21.049L37.3001 32.6416L36.0045 33.9371L32.8433 30.7759C31.9979 29.9305 30.6273 29.9305 29.7819 30.7759C28.9365 31.6213 28.9365 32.9919 29.7819 33.8373L32.9431 36.9985L25.7913 44.1503L14.2106 32.5696L16.8932 29.8871L22.4342 35.4281C22.5689 36.9125 23.8168 38.0755 25.3362 38.0755C26.9456 38.0755 28.2503 36.7708 28.2503 35.1614C28.2503 33.5655 26.9673 32.2692 25.3765 32.2477L19.9545 26.8257L21.3214 25.4589L23.3186 27.4561C24.1639 28.3015 25.5346 28.3015 26.3799 27.4561C27.2253 26.6107 27.2253 25.2401 26.3799 24.3947L22.8956 20.9104C22.4021 20.4168 21.7294 20.2114 21.0868 20.2942C20.5944 20.3352 20.1134 20.544 19.7367 20.9207L16.8932 23.7643ZM25.7965 49.35C25.2321 49.3581 24.6652 49.1469 24.2345 48.7162L9.63411 34.1158C9.04596 33.5277 8.867 32.6853 9.09723 31.9424C9.19507 31.6011 9.37843 31.279 9.64732 31.0102L13.8318 26.8257L9.63411 22.628C9.2047 22.1986 8.99341 21.6337 9.00024 21.0709C8.99294 20.5075 9.20422 19.9419 9.63409 19.512L24.5118 4.63426C25.0121 4.13396 25.6964 3.92974 26.3468 4.0216C26.8074 4.07937 27.2529 4.28508 27.6066 4.63871L42.207 19.2391C42.8765 19.9086 43.0158 20.9075 42.6248 21.7141L42.6729 21.7622L42.5031 21.9321C42.4198 22.0627 42.3211 22.1864 42.207 22.3005C42.0929 22.4146 41.9692 22.5133 41.8386 22.5966L37.6082 26.8269L41.8795 31.0982C42.0677 31.2864 42.214 31.5006 42.3184 31.7293C42.6931 32.531 42.5494 33.515 41.8875 34.1769L27.3483 48.7161C26.9202 49.1442 26.3575 49.3555 25.7965 49.35Z" fill="#00C2FF"/>
<path d="M14.1988 21.07L13.9867 20.8579L13.7746 21.07L13.9867 21.2821L14.1988 21.07ZM16.8932 23.7643L16.681 23.9764L16.8932 24.1886L17.1053 23.9764L16.8932 23.7643ZM26.057 9.21187L26.2691 8.99973L26.057 8.7876L25.8448 8.99973L26.057 9.21187ZM37.5788 20.7337L37.7909 20.9458L38.003 20.7337L37.7909 20.5215L37.5788 20.7337ZM34.5468 23.7656L34.3347 23.9777L34.5468 24.1898L34.759 23.9777L34.5468 23.7656ZM29.0826 18.3013L28.7829 18.2882L28.7771 18.4201L28.8705 18.5135L29.0826 18.3013ZM25.7075 21.049L25.9197 20.8369L25.8509 20.7681L25.7549 20.7528L25.7075 21.049ZM37.3001 32.6416L37.5122 32.8537L37.7244 32.6416L37.5122 32.4294L37.3001 32.6416ZM36.0045 33.9371L35.7924 34.1493L36.0045 34.3614L36.2166 34.1493L36.0045 33.9371ZM29.7819 30.7759L29.994 30.988L29.994 30.988L29.7819 30.7759ZM29.7819 33.8373L29.5698 34.0494L29.5698 34.0494L29.7819 33.8373ZM32.9431 36.9985L33.1553 37.2106L33.3674 36.9985L33.1553 36.7864L32.9431 36.9985ZM25.7913 44.1503L25.5792 44.3624L25.7913 44.5746L26.0035 44.3624L25.7913 44.1503ZM14.2106 32.5696L13.9985 32.3575L13.7864 32.5696L13.9985 32.7817L14.2106 32.5696ZM16.8932 29.8871L17.1053 29.6749L16.8932 29.4628L16.681 29.6749L16.8932 29.8871ZM22.4342 35.4281L22.733 35.401L22.7232 35.2928L22.6464 35.216L22.4342 35.4281ZM25.3765 32.2477L25.1644 32.4598L25.2506 32.546L25.3725 32.5476L25.3765 32.2477ZM19.9545 26.8257L19.7424 26.6136L19.5303 26.8257L19.7424 27.0378L19.9545 26.8257ZM21.3214 25.4589L21.5335 25.2467L21.3214 25.0346L21.1092 25.2467L21.3214 25.4589ZM21.0868 20.2942L21.1117 20.5935L21.1251 20.5918L21.0868 20.2942ZM24.2345 48.7162L24.4467 48.5041L24.2345 48.7162ZM25.7965 49.35L25.7994 49.05L25.7922 49.0501L25.7965 49.35ZM9.63411 34.1158L9.42198 34.328L9.42198 34.328L9.63411 34.1158ZM9.09723 31.9424L9.38385 32.0313L9.38562 32.0251L9.09723 31.9424ZM9.64732 31.0102L9.85945 31.2223L9.85945 31.2223L9.64732 31.0102ZM13.8318 26.8257L14.0439 27.0378L14.2561 26.8257L14.0439 26.6136L13.8318 26.8257ZM9.63411 22.628L9.42198 22.8401L9.42198 22.8401L9.63411 22.628ZM9.00024 21.0709L9.30031 21.0745L9.30021 21.067L9.00024 21.0709ZM9.63409 19.512L9.42196 19.2999L9.42196 19.2999L9.63409 19.512ZM24.5118 4.63426L24.2997 4.42212L24.2997 4.42212L24.5118 4.63426ZM26.3468 4.0216L26.3049 4.31869L26.3095 4.31926L26.3468 4.0216ZM27.6066 4.63871L27.3944 4.85084L27.3944 4.85084L27.6066 4.63871ZM42.207 19.2391L42.4191 19.027L42.4191 19.027L42.207 19.2391ZM42.6248 21.7141L42.3549 21.5833L42.2618 21.7753L42.4127 21.9263L42.6248 21.7141ZM42.6729 21.7622L42.8851 21.9744L43.0972 21.7622L42.8851 21.5501L42.6729 21.7622ZM42.5031 21.9321L42.2909 21.72L42.2677 21.7432L42.2501 21.7708L42.5031 21.9321ZM42.207 22.3005L42.4191 22.5126L42.4191 22.5126L42.207 22.3005ZM41.8386 22.5966L41.6773 22.3436L41.6496 22.3613L41.6265 22.3844L41.8386 22.5966ZM37.6082 26.8269L37.3961 26.6148L37.184 26.8269L37.3961 27.0391L37.6082 26.8269ZM41.8795 31.0982L41.6673 31.3103L41.6673 31.3103L41.8795 31.0982ZM42.3184 31.7293L42.0455 31.8539L42.0466 31.8563L42.3184 31.7293ZM41.8875 34.1769L41.6754 33.9648L41.6754 33.9648L41.8875 34.1769ZM13.9867 21.2821L16.681 23.9764L17.1053 23.5522L14.411 20.8579L13.9867 21.2821ZM25.8448 8.99973L13.9867 20.8579L14.411 21.2821L26.2691 9.424L25.8448 8.99973ZM37.7909 20.5215L26.2691 8.99973L25.8448 9.424L37.3666 20.9458L37.7909 20.5215ZM34.759 23.9777L37.7909 20.9458L37.3666 20.5215L34.3347 23.5534L34.759 23.9777ZM28.8705 18.5135L34.3347 23.9777L34.759 23.5534L29.2948 18.0892L28.8705 18.5135ZM28.7855 18.1717C28.7855 18.2108 28.7846 18.2496 28.7829 18.2882L29.3823 18.3145C29.3844 18.2671 29.3855 18.2195 29.3855 18.1717H28.7855ZM26.1714 15.5576C27.6151 15.5576 28.7855 16.728 28.7855 18.1717H29.3855C29.3855 16.3966 27.9465 14.9576 26.1714 14.9576V15.5576ZM23.5574 18.1717C23.5574 16.728 24.7277 15.5576 26.1714 15.5576V14.9576C24.3964 14.9576 22.9574 16.3966 22.9574 18.1717H23.5574ZM25.7549 20.7528C24.5092 20.5535 23.5574 19.4735 23.5574 18.1717H22.9574C22.9574 19.7729 24.128 21.1001 25.6601 21.3452L25.7549 20.7528ZM37.5122 32.4294L25.9197 20.8369L25.4954 21.2611L37.088 32.8537L37.5122 32.4294ZM36.2166 34.1493L37.5122 32.8537L37.088 32.4294L35.7924 33.725L36.2166 34.1493ZM32.6311 30.988L35.7924 34.1493L36.2166 33.725L33.0554 30.5638L32.6311 30.988ZM29.994 30.988C30.7222 30.2598 31.9029 30.2598 32.6311 30.988L33.0554 30.5638C32.0929 29.6012 30.5323 29.6012 29.5698 30.5638L29.994 30.988ZM29.994 33.6251C29.2658 32.8969 29.2658 31.7163 29.994 30.988L29.5698 30.5638C28.6072 31.5263 28.6072 33.0869 29.5698 34.0494L29.994 33.6251ZM33.1553 36.7864L29.994 33.6251L29.5698 34.0494L32.731 37.2106L33.1553 36.7864ZM26.0035 44.3624L33.1553 37.2106L32.731 36.7864L25.5792 43.9382L26.0035 44.3624ZM13.9985 32.7817L25.5792 44.3624L26.0035 43.9382L14.4228 32.3575L13.9985 32.7817ZM16.681 29.6749L13.9985 32.3575L14.4228 32.7817L17.1053 30.0992L16.681 29.6749ZM22.6464 35.216L17.1053 29.6749L16.681 30.0992L22.2221 35.6403L22.6464 35.216ZM25.3362 37.7755C23.9734 37.7755 22.8538 36.7323 22.733 35.401L22.1355 35.4552C22.284 37.0927 23.6602 38.3755 25.3362 38.3755V37.7755ZM27.9503 35.1614C27.9503 36.6051 26.7799 37.7755 25.3362 37.7755V38.3755C27.1113 38.3755 28.5503 36.9365 28.5503 35.1614H27.9503ZM25.3725 32.5476C26.7994 32.567 27.9503 33.7298 27.9503 35.1614H28.5503C28.5503 33.4012 27.1352 31.9715 25.3806 31.9477L25.3725 32.5476ZM19.7424 27.0378L25.1644 32.4598L25.5886 32.0355L20.1667 26.6136L19.7424 27.0378ZM21.1092 25.2467L19.7424 26.6136L20.1667 27.0378L21.5335 25.671L21.1092 25.2467ZM23.5307 27.2439L21.5335 25.2467L21.1092 25.671L23.1064 27.6682L23.5307 27.2439ZM26.1678 27.2439C25.4396 27.9722 24.2589 27.9722 23.5307 27.2439L23.1064 27.6682C24.069 28.6307 25.6295 28.6307 26.5921 27.6682L26.1678 27.2439ZM26.1678 24.6068C26.896 25.3351 26.896 26.5157 26.1678 27.2439L26.5921 27.6682C27.5546 26.7057 27.5546 25.1451 26.5921 24.1826L26.1678 24.6068ZM22.6835 21.1225L26.1678 24.6068L26.5921 24.1826L23.1078 20.6983L22.6835 21.1225ZM21.1251 20.5918C21.6795 20.5203 22.2584 20.6975 22.6835 21.1225L23.1078 20.6983C22.5457 20.1362 21.7793 19.9025 21.0485 19.9967L21.1251 20.5918ZM19.9489 21.1329C20.2735 20.8082 20.6874 20.6285 21.1117 20.5932L21.0619 19.9952C20.5015 20.0419 19.9533 20.2799 19.5246 20.7086L19.9489 21.1329ZM17.1053 23.9764L19.9489 21.1329L19.5246 20.7086L16.681 23.5522L17.1053 23.9764ZM24.0224 48.9284C24.5127 49.4187 25.1587 49.6592 25.8008 49.65L25.7922 49.0501C25.3055 49.0571 24.8177 48.8751 24.4467 48.5041L24.0224 48.9284ZM9.42198 34.328L24.0224 48.9284L24.4467 48.5041L9.84624 33.9037L9.42198 34.328ZM8.81068 31.8536C8.5488 32.6986 8.75202 33.658 9.42198 34.328L9.84624 33.9037C9.3399 33.3973 9.18521 32.672 9.38379 32.0312L8.81068 31.8536ZM9.43519 30.798C9.1294 31.1038 8.92035 31.4707 8.80884 31.8598L9.38562 32.0251C9.46979 31.7314 9.62747 31.4543 9.85945 31.2223L9.43519 30.798ZM13.6197 26.6136L9.43519 30.798L9.85945 31.2223L14.0439 27.0378L13.6197 26.6136ZM9.42198 22.8401L13.6197 27.0378L14.0439 26.6136L9.84624 22.4159L9.42198 22.8401ZM8.70026 21.0673C8.6925 21.7075 8.9331 22.3513 9.42198 22.8401L9.84624 22.4159C9.4763 22.0459 9.29433 21.5598 9.30022 21.0745L8.70026 21.0673ZM9.42196 19.2999C8.93255 19.7893 8.69196 20.4339 8.70026 21.0748L9.30021 21.067C9.29392 20.5812 9.47588 20.0945 9.84622 19.7241L9.42196 19.2999ZM24.2997 4.42212L9.42196 19.2999L9.84622 19.7241L24.7239 4.84639L24.2997 4.42212ZM26.3888 3.72454C25.649 3.62008 24.8694 3.85236 24.2997 4.42212L24.7239 4.84639C25.1548 4.41556 25.7437 4.23941 26.3049 4.31865L26.3888 3.72454ZM27.8187 4.42657C27.4163 4.02416 26.9085 3.78971 26.3842 3.72393L26.3095 4.31926C26.7062 4.36904 27.0896 4.54599 27.3944 4.85084L27.8187 4.42657ZM42.4191 19.027L27.8187 4.42657L27.3944 4.85084L41.9948 19.4512L42.4191 19.027ZM42.8948 21.845C43.3397 20.927 43.1817 19.7896 42.4191 19.027L41.9948 19.4512C42.5712 20.0276 42.6918 20.8881 42.3549 21.5833L42.8948 21.845ZM42.8851 21.5501L42.837 21.502L42.4127 21.9263L42.4608 21.9744L42.8851 21.5501ZM42.7152 22.1442L42.8851 21.9744L42.4608 21.5501L42.2909 21.72L42.7152 22.1442ZM42.4191 22.5126C42.5487 22.383 42.6611 22.2423 42.756 22.0934L42.2501 21.7708C42.1785 21.8832 42.0934 21.9898 41.9948 22.0884L42.4191 22.5126ZM41.9999 22.8495C42.1488 22.7546 42.2895 22.6422 42.4191 22.5126L41.9948 22.0884C41.8963 22.1869 41.7897 22.272 41.6773 22.3436L41.9999 22.8495ZM37.8204 27.0391L42.0507 22.8087L41.6265 22.3844L37.3961 26.6148L37.8204 27.0391ZM42.0916 30.8861L37.8204 26.6148L37.3961 27.0391L41.6673 31.3103L42.0916 30.8861ZM42.5913 31.6047C42.4722 31.3439 42.3055 31.0999 42.0916 30.8861L41.6673 31.3103C41.8298 31.4728 41.9557 31.6573 42.0455 31.8539L42.5913 31.6047ZM42.0996 34.389C42.8536 33.635 43.0166 32.5146 42.5902 31.6022L42.0466 31.8563C42.3696 32.5473 42.2452 33.3949 41.6754 33.9648L42.0996 34.389ZM27.5604 48.9282L42.0996 34.389L41.6754 33.9648L27.1362 48.504L27.5604 48.9282ZM25.7936 49.65C26.4318 49.6562 27.0731 49.4156 27.5604 48.9282L27.1362 48.504C26.7674 48.8728 26.2832 49.0547 25.7994 49.0501L25.7936 49.65Z" fill="black" mask="url(#path-1-outside-1_55_22)"/>
<circle cx="25.3418" cy="35.1626" r="1" transform="rotate(-44.9216 25.3418 35.1626)" fill="black" stroke="white" stroke-width="1.33033"/>
<circle cx="26.1757" cy="18.1783" r="1" transform="rotate(-44.9216 26.1757 18.1783)" fill="white" stroke="black" stroke-width="1.33033"/>
<path d="M69.4084 39.9814C69.4084 40.1519 69.4717 40.2756 69.5981 40.3526C69.7246 40.446 69.994 40.5423 70.4064 40.6412C70.8407 40.7457 71.1569 40.8887 71.3548 41.0701C71.5583 41.2515 71.66 41.5127 71.66 41.8536C71.66 42.211 71.5253 42.4997 71.2559 42.7196C70.9919 42.9395 70.6455 43.0495 70.2167 43.0495C69.5954 43.0495 69.0346 42.8296 68.5342 42.3897L68.9631 41.8784C69.3809 42.2357 69.8043 42.4144 70.2332 42.4144C70.4476 42.4144 70.6208 42.3677 70.7528 42.2742C70.8847 42.1753 70.9507 42.0488 70.9507 41.8948C70.9507 41.7409 70.8902 41.6199 70.7693 41.532C70.6538 41.444 70.4449 41.3643 70.1425 41.2928C69.6201 41.1718 69.2572 41.0289 69.0538 40.8639C68.8174 40.6825 68.6992 40.4048 68.6992 40.0309C68.6992 39.668 68.8311 39.3849 69.095 39.1814C69.359 38.9725 69.6971 38.868 70.1095 38.868C70.6648 38.868 71.1404 39.0302 71.5363 39.3546L71.1734 39.866C71.0524 39.756 70.8902 39.668 70.6868 39.6021C70.4834 39.5306 70.2827 39.4948 70.0847 39.4948C69.8813 39.4948 69.7163 39.5388 69.5899 39.6268C69.4689 39.7093 69.4084 39.8275 69.4084 39.9814ZM75.5818 38.967V39.6021H73.4293V40.6742H75.3592V41.2763H73.4293V42.3567H75.6478V43H72.7447V38.967H75.5818ZM79.7355 41.8866L80.1726 42.332C79.7547 42.8103 79.2379 43.0495 78.6221 43.0495C78.0118 43.0495 77.5032 42.8543 77.0963 42.4639C76.6949 42.068 76.4943 41.5704 76.4943 40.9711C76.4943 40.3663 76.7004 39.866 77.1128 39.4701C77.5252 39.0687 78.0448 38.868 78.6716 38.868C79.2874 38.868 79.807 39.099 80.2303 39.5608L79.8015 40.0309C79.609 39.844 79.4276 39.7148 79.2571 39.6433C79.0867 39.5718 78.886 39.5361 78.6551 39.5361C78.2427 39.5361 77.8963 39.668 77.6159 39.932C77.341 40.1959 77.2035 40.5313 77.2035 40.9381C77.2035 41.3395 77.341 41.6804 77.6159 41.9608C77.8908 42.2412 78.218 42.3814 78.5973 42.3814C78.8283 42.3814 79.0262 42.343 79.1912 42.266C79.3616 42.189 79.543 42.0625 79.7355 41.8866ZM82.9059 42.3979C83.2193 42.3979 83.4667 42.2907 83.6482 42.0763C83.8351 41.8619 83.9286 41.5704 83.9286 41.2021V38.967H84.6131V41.2268C84.6131 41.7986 84.4564 42.244 84.143 42.5629C83.8296 42.8818 83.4172 43.0412 82.9059 43.0412C82.3946 43.0412 81.9822 42.8818 81.6688 42.5629C81.3554 42.244 81.1987 41.7986 81.1987 41.2268V38.967H81.875V41.2021C81.875 41.5759 81.9684 41.8674 82.1554 42.0763C82.3368 42.2907 82.587 42.3979 82.9059 42.3979ZM88.2762 41.532L89.3319 43H88.4659L87.5009 41.6392H86.6102V43H85.9257V38.967H87.4267C88.037 38.967 88.4741 39.0715 88.738 39.2804C89.0075 39.4838 89.1422 39.8165 89.1422 40.2784C89.1422 40.9436 88.8535 41.3615 88.2762 41.532ZM87.4514 41.0289C87.8308 41.0289 88.092 40.9711 88.2349 40.8557C88.3779 40.7402 88.4494 40.545 88.4494 40.2701C88.4494 40.0062 88.3779 39.8275 88.2349 39.734C88.092 39.6351 87.8363 39.5856 87.4679 39.5856H86.6102V41.0289H87.4514ZM90.3688 38.967H91.0533V43H90.3688V38.967ZM93.9314 39.5856V43H93.2469V39.5856H92.0263V38.967H95.1521V39.5856H93.9314ZM97.7214 43H97.0286V41.4082L95.5275 38.967H96.2781L97.375 40.7979L98.4801 38.967H99.2224L97.7214 41.4082V43ZM101.525 41.8701C101.525 41.4357 101.841 41.0481 102.473 40.7072C102.303 40.5093 102.187 40.3553 102.127 40.2454C102.072 40.1354 102.045 39.9952 102.045 39.8247C102.045 39.5278 102.154 39.2942 102.374 39.1237C102.594 38.9533 102.867 38.868 103.191 38.868C103.51 38.868 103.774 38.9505 103.983 39.1155C104.192 39.2749 104.296 39.4921 104.296 39.767C104.296 40.1519 103.988 40.512 103.372 40.8474C103.631 41.1608 103.881 41.4495 104.123 41.7134C104.244 41.532 104.337 41.3258 104.403 41.0948L104.873 41.433C104.78 41.6859 104.667 41.9168 104.535 42.1258C104.579 42.1698 104.667 42.2577 104.799 42.3897C104.931 42.5162 105.038 42.6206 105.121 42.7031L104.692 43.1072L104.164 42.5794C103.818 42.8928 103.394 43.0495 102.894 43.0495C102.504 43.0495 102.176 42.9423 101.913 42.7278C101.654 42.5134 101.525 42.2275 101.525 41.8701ZM102.968 42.4887C103.21 42.4887 103.469 42.3759 103.743 42.1505C103.298 41.6722 102.99 41.3313 102.82 41.1278C102.385 41.3643 102.168 41.6199 102.168 41.8948C102.168 42.0708 102.242 42.2137 102.391 42.3237C102.539 42.4337 102.732 42.4887 102.968 42.4887ZM102.688 39.7835C102.688 39.888 102.71 39.9814 102.754 40.0639C102.803 40.1464 102.897 40.2701 103.034 40.4351C103.469 40.2206 103.686 40.0199 103.686 39.833C103.686 39.69 103.636 39.5801 103.537 39.5031C103.444 39.4206 103.328 39.3794 103.191 39.3794C103.059 39.3794 102.941 39.4206 102.836 39.5031C102.737 39.5856 102.688 39.679 102.688 39.7835ZM109.141 41.8701L110.04 38.967H110.65L111.549 41.8701L112.564 38.967H113.298L111.887 43H111.211L110.37 40.2371H110.32L109.471 43H108.795L107.384 38.967H108.118L109.141 41.8701ZM117.011 38.967V39.6021H114.858V40.6742H116.788V41.2763H114.858V42.3567H117.077V43H114.174V38.967H117.011ZM118.187 43V38.967H119.754C120.321 38.967 120.705 39.088 120.909 39.3299C121.09 39.5333 121.181 39.767 121.181 40.0309C121.181 40.3498 121.082 40.5863 120.884 40.7402C120.818 40.7897 120.719 40.8447 120.587 40.9052C120.84 40.9601 121.038 41.0729 121.181 41.2433C121.329 41.4137 121.404 41.6254 121.404 41.8784C121.404 42.1973 121.288 42.4639 121.057 42.6784C120.832 42.8928 120.464 43 119.952 43H118.187ZM118.872 40.6412H119.729C120.224 40.6412 120.472 40.4735 120.472 40.1381C120.472 39.9457 120.411 39.8082 120.29 39.7258C120.175 39.6378 119.991 39.5938 119.738 39.5938H118.872V40.6412ZM118.872 42.3732H119.936C120.2 42.3732 120.395 42.332 120.521 42.2495C120.648 42.1615 120.711 42.0131 120.711 41.8041C120.711 41.4467 120.425 41.268 119.853 41.268H118.872V42.3732Z" fill="black"/>
<g filter="url(#filter0_d_55_22)">
<path d="M52.8351 20.7938C52.8351 21.5395 53.1117 22.0808 53.6649 22.4175C54.2182 22.8265 55.3969 23.2474 57.201 23.6804C59.1014 24.1375 60.4845 24.7629 61.3505 25.5567C62.2406 26.3505 62.6856 27.4931 62.6856 28.9845C62.6856 30.5481 62.0962 31.811 60.9175 32.7732C59.7629 33.7354 58.2474 34.2165 56.3711 34.2165C53.6529 34.2165 51.1993 33.2543 49.0103 31.3299L50.8866 29.0928C52.7148 30.6564 54.567 31.4381 56.4433 31.4381C57.3814 31.4381 58.1392 31.2337 58.7165 30.8247C59.2938 30.3918 59.5825 29.8385 59.5825 29.1649C59.5825 28.4914 59.3179 27.9622 58.7887 27.5773C58.2835 27.1924 57.3694 26.8436 56.0464 26.5309C53.7612 26.0017 52.1735 25.3763 51.2835 24.6546C50.2491 23.8608 49.732 22.646 49.732 21.0103C49.732 19.4227 50.3093 18.1838 51.4639 17.2938C52.6186 16.3797 54.0979 15.9227 55.9021 15.9227C58.3316 15.9227 60.4124 16.6323 62.1443 18.0515L60.5567 20.2887C60.0275 19.8076 59.3179 19.4227 58.4278 19.134C57.5378 18.8213 56.6598 18.6649 55.7938 18.6649C54.9038 18.6649 54.1821 18.8574 53.6289 19.2423C53.0997 19.6031 52.8351 20.1203 52.8351 20.7938ZM67.646 29.9948L65.878 34H62.7027L70.4965 16.3557H73.6718L81.4295 34H78.2543L76.4862 29.9948H67.646ZM75.2955 27.2165L72.0842 19.9639L68.8728 27.2165H75.2955ZM92.9453 27.5773L97.5639 34H93.7752L89.5536 28.0464H85.6567V34H82.6618V16.3557H89.2288C91.8989 16.3557 93.8113 16.8127 94.9659 17.7268C96.1446 18.6168 96.734 20.0722 96.734 22.0928C96.734 25.0034 95.4711 26.8316 92.9453 27.5773ZM89.3371 25.3763C90.9969 25.3763 92.1395 25.1237 92.7649 24.6186C93.3903 24.1134 93.703 23.2594 93.703 22.0567C93.703 20.9021 93.3903 20.1203 92.7649 19.7113C92.1395 19.2784 91.0209 19.0619 89.4092 19.0619H85.6567V25.3763H89.3371ZM105.887 16.3557C108.533 16.3557 110.47 16.8729 111.697 17.9072C112.947 18.9175 113.573 20.4931 113.573 22.634C113.573 24.7509 112.947 26.3144 111.697 27.3247C110.446 28.311 108.521 28.8041 105.923 28.8041H102.82V34H99.8255V16.3557H105.887ZM106.248 26.134C107.836 26.134 108.942 25.8333 109.568 25.232C110.217 24.6306 110.542 23.6804 110.542 22.3814C110.542 21.1787 110.169 20.3247 109.423 19.8196C108.678 19.3144 107.475 19.0619 105.815 19.0619H102.82V26.134H106.248ZM115.895 16.3557H118.89V34H115.895V16.3557ZM135.774 16.3557H138.733V34H135.521L125.527 21.1186V34H122.532V16.3557H125.527L135.774 29.5258V16.3557Z" fill="black"/>
</g>
<defs>
<filter id="filter0_d_55_22" x="48.0103" y="15.9227" width="91.7225" height="21.2938" filterUnits="userSpaceOnUse" color-interpolation-filters="sRGB">
<feFlood flood-opacity="0" result="BackgroundImageFix"/>
<feColorMatrix in="SourceAlpha" type="matrix" values="0 0 0 0 0 0 0 0 0 0 0 0 0 0 0 0 0 0 127 0" result="hardAlpha"/>
<feOffset dy="2"/>
<feGaussianBlur stdDeviation="0.5"/>
<feColorMatrix type="matrix" values="0 0 0 0 0 0 0 0 0 0 0 0 0 0 0 0 0 0 0.48 0"/>
<feBlend mode="normal" in2="BackgroundImageFix" result="effect1_dropShadow_55_22"/>
<feBlend mode="normal" in="SourceGraphic" in2="effect1_dropShadow_55_22" result="shape"/>
</filter>
</defs>
</svg>
