<svg width="150" height="50" viewBox="0 0 150 50" fill="none" xmlns="http://www.w3.org/2000/svg">
<g clip-path="url(#clip0_68_3)">
<path fill-rule="evenodd" clip-rule="evenodd" d="M15.0671 22.1995L12.3136 19.4459L24.4331 7.32639L36.2308 19.1241L33.2158 22.1392C33.1878 22.1672 33.1606 22.1958 33.1344 22.225L27.5251 16.6157C27.527 16.5719 27.528 16.528 27.528 16.4837C27.528 14.8389 26.1946 13.5055 24.5497 13.5055C22.9049 13.5055 21.5714 14.8389 21.5714 16.4837C21.5714 17.9675 22.6564 19.1978 24.0763 19.4246L35.9246 31.2729L34.6003 32.5972L31.3685 29.3655C30.5045 28.5015 29.1037 28.5015 28.2397 29.3655C27.3756 30.2295 27.3756 31.6304 28.2397 32.4944L31.4714 35.7261L24.1619 43.0356L12.3253 31.199L15.0671 28.4572L20.7306 34.1207C20.8682 35.6378 22.1436 36.8264 23.6965 36.8264C25.3414 36.8264 26.6748 35.493 26.6748 33.8481C26.6748 32.217 25.3636 30.8922 23.7378 30.8701L18.196 25.3283L19.593 23.9313L21.6345 25.9728C22.4985 26.8368 23.8994 26.8368 24.7634 25.9728C25.6274 25.1087 25.6274 23.7079 24.7634 22.8439L21.2023 19.2828C20.698 18.7785 20.0108 18.5685 19.3542 18.6529C18.8506 18.6946 18.3586 18.908 17.9733 19.2933L15.0671 22.1995ZM24.1595 48.3496C23.5851 48.356 23.0086 48.14 22.5703 47.7017L7.64804 32.7794C7.04894 32.1804 6.86525 31.3232 7.09697 30.5658C7.1964 30.214 7.38454 29.882 7.66139 29.6052L11.9382 25.3283L7.64804 21.0381C7.20927 20.5994 6.99332 20.0222 7.00019 19.4471C6.9927 18.8713 7.20864 18.2931 7.64801 17.8537L22.8537 2.64801C23.3566 2.14518 24.0412 1.93499 24.696 2.01741C25.1784 2.07063 25.6466 2.28216 26.0165 2.65201L40.9388 17.5743C41.8028 18.4383 41.8028 19.8392 40.9388 20.7032C40.8723 20.7697 40.8025 20.8311 40.7302 20.8874C40.6941 20.9293 40.6562 20.9701 40.6165 21.0098L36.3515 25.2748C36.3234 25.3029 36.2948 25.33 36.2657 25.3562L40.6047 29.6952C40.7897 29.8803 40.9351 30.0899 41.0409 30.3137C41.4397 31.1378 41.2972 32.1581 40.6132 32.842L25.7534 47.7018C25.3139 48.1413 24.7355 48.3573 24.1595 48.3496Z" fill="#00C2FF"/>
<circle cx="23.7017" cy="33.8492" r="1.20188" transform="rotate(-44.9216 23.7017 33.8492)" fill="black" stroke="white"/>
<circle cx="24.5546" cy="16.4906" r="1.20188" transform="rotate(-44.9216 24.5546 16.4906)" fill="white" stroke="black"/>
<path d="M51.1113 20.0392C51.1113 20.8275 51.4038 21.3997 51.9887 21.7557C52.5735 22.188 53.8196 22.633 55.7268 23.0907C57.7357 23.5739 59.1979 24.2351 60.1134 25.0742C61.0543 25.9134 61.5247 27.1213 61.5247 28.6979C61.5247 30.3509 60.9017 31.6859 59.6557 32.7031C58.4351 33.7203 56.833 34.2289 54.8495 34.2289C51.9759 34.2289 49.3821 33.2117 47.068 31.1773L49.0515 28.8124C50.9842 30.4653 52.9423 31.2918 54.9258 31.2918C55.9175 31.2918 56.7186 31.0756 57.3289 30.6433C57.9392 30.1856 58.2443 29.6007 58.2443 28.8887C58.2443 28.1766 57.9646 27.6172 57.4052 27.2103C56.8711 26.8034 55.9048 26.4347 54.5062 26.1041C52.0904 25.5447 50.412 24.8835 49.4711 24.1206C48.3777 23.2814 47.8309 21.9973 47.8309 20.268C47.8309 18.5897 48.4412 17.2801 49.6619 16.3392C50.8825 15.3729 52.4464 14.8897 54.3536 14.8897C56.922 14.8897 59.1217 15.6399 60.9526 17.1402L59.2742 19.5052C58.7148 18.9966 57.9646 18.5897 57.0237 18.2845C56.0828 17.954 55.1546 17.7887 54.2392 17.7887C53.2983 17.7887 52.5354 17.9921 51.9505 18.399C51.3911 18.7804 51.1113 19.3271 51.1113 20.0392ZM66.7687 29.766L64.8996 34H61.5429L69.7821 15.3474H73.1388L81.3398 34H77.9831L76.114 29.766H66.7687ZM74.8553 26.8289L71.4604 19.1619L68.0656 26.8289H74.8553ZM93.5136 27.2103L98.3961 34H94.3909L89.9281 27.7062H85.8085V34H82.6425V15.3474H89.5848C92.4074 15.3474 94.4291 15.8306 95.6497 16.7969C96.8958 17.7378 97.5188 19.2763 97.5188 21.4124C97.5188 24.4893 96.1837 26.422 93.5136 27.2103ZM89.6992 24.8835C91.4538 24.8835 92.6617 24.6165 93.3229 24.0825C93.9841 23.5485 94.3147 22.6457 94.3147 21.3742C94.3147 20.1536 93.9841 19.3271 93.3229 18.8948C92.6617 18.4371 91.4793 18.2082 89.7755 18.2082H85.8085V24.8835H89.6992ZM107.195 15.3474C109.992 15.3474 112.04 15.8942 113.336 16.9876C114.659 18.0557 115.32 19.7213 115.32 21.9845C115.32 24.2223 114.659 25.8753 113.336 26.9433C112.014 27.9859 109.98 28.5072 107.233 28.5072H103.953V34H100.787V15.3474H107.195ZM107.577 25.6845C109.255 25.6845 110.425 25.3667 111.086 24.7309C111.773 24.0952 112.116 23.0907 112.116 21.7175C112.116 20.446 111.722 19.5433 110.933 19.0093C110.145 18.4753 108.874 18.2082 107.119 18.2082H103.953V25.6845H107.577ZM117.775 15.3474H120.941V34H117.775V15.3474ZM138.79 15.3474H141.917V34H138.523L127.957 20.3825V34H124.791V15.3474H127.957L138.79 29.2701V15.3474Z" fill="black"/>
<path d="M66.7095 40.6041C66.7095 40.7959 66.7806 40.9351 66.9229 41.0216C67.0652 41.1268 67.3683 41.2351 67.8322 41.3464C68.3208 41.4639 68.6765 41.6247 68.8992 41.8289C69.128 42.033 69.2425 42.3268 69.2425 42.7103C69.2425 43.1124 69.0909 43.4371 68.7878 43.6845C68.4909 43.932 68.1012 44.0557 67.6188 44.0557C66.9198 44.0557 66.2889 43.8082 65.726 43.3134L66.2085 42.7381C66.6786 43.1402 67.1549 43.3412 67.6373 43.3412C67.8786 43.3412 68.0734 43.2887 68.2219 43.1835C68.3703 43.0722 68.4445 42.9299 68.4445 42.7567C68.4445 42.5835 68.3765 42.4474 68.2404 42.3485C68.1105 42.2495 67.8755 42.1598 67.5353 42.0794C66.9476 41.9433 66.5394 41.7825 66.3105 41.5969C66.0445 41.3928 65.9116 41.0804 65.9116 40.6598C65.9116 40.2515 66.06 39.933 66.3569 39.7041C66.6538 39.4691 67.0342 39.3515 67.4982 39.3515C68.1229 39.3515 68.6579 39.534 69.1033 39.899L68.6951 40.4742C68.559 40.3505 68.3765 40.2515 68.1476 40.1773C67.9188 40.0969 67.693 40.0567 67.4703 40.0567C67.2415 40.0567 67.0559 40.1062 66.9136 40.2052C66.7775 40.2979 66.7095 40.4309 66.7095 40.6041ZM73.6546 39.4629V40.1773H71.2329V41.3835H73.4041V42.0608H71.2329V43.2763H73.7288V44H70.4628V39.4629H73.6546ZM78.3274 42.7474L78.8192 43.2485C78.3491 43.7866 77.7676 44.0557 77.0748 44.0557C76.3882 44.0557 75.8161 43.8361 75.3584 43.3969C74.9068 42.9515 74.681 42.3918 74.681 41.7175C74.681 41.0371 74.913 40.4742 75.3769 40.0289C75.8408 39.5773 76.4254 39.3515 77.1305 39.3515C77.8233 39.3515 78.4078 39.6113 78.8841 40.1309L78.4017 40.6598C78.1852 40.4495 77.981 40.3041 77.7893 40.2237C77.5975 40.1433 77.3718 40.1031 77.112 40.1031C76.648 40.1031 76.2584 40.2515 75.9429 40.5485C75.6336 40.8454 75.479 41.2227 75.479 41.6804C75.479 42.132 75.6336 42.5155 75.9429 42.8309C76.2522 43.1464 76.6202 43.3041 77.047 43.3041C77.3068 43.3041 77.5295 43.2608 77.7151 43.1742C77.9068 43.0876 78.1109 42.9454 78.3274 42.7474ZM81.8941 43.3227C82.2467 43.3227 82.5251 43.2021 82.7292 42.9608C82.9395 42.7196 83.0447 42.3918 83.0447 41.9773V39.4629H83.8148V42.0052C83.8148 42.6485 83.6385 43.1495 83.2859 43.5082C82.9333 43.867 82.4694 44.0464 81.8941 44.0464C81.3189 44.0464 80.855 43.867 80.5024 43.5082C80.1498 43.1495 79.9735 42.6485 79.9735 42.0052V39.4629H80.7343V41.9773C80.7343 42.3979 80.8395 42.7258 81.0498 42.9608C81.2539 43.2021 81.5354 43.3227 81.8941 43.3227ZM87.9357 42.3485L89.1233 44H88.1491L87.0635 42.4691H86.0615V44H85.2914V39.4629H86.98C87.6666 39.4629 88.1584 39.5804 88.4553 39.8155C88.7584 40.0443 88.9099 40.4186 88.9099 40.9381C88.9099 41.6866 88.5852 42.1567 87.9357 42.3485ZM87.0079 41.7825C87.4347 41.7825 87.7285 41.7175 87.8893 41.5876C88.0501 41.4577 88.1306 41.2381 88.1306 40.9289C88.1306 40.632 88.0501 40.4309 87.8893 40.3258C87.7285 40.2144 87.4409 40.1588 87.0264 40.1588H86.0615V41.7825H87.0079ZM90.2899 39.4629H91.06V44H90.2899V39.4629ZM94.2979 40.1588V44H93.5278V40.1588H92.1546V39.4629H95.6711V40.1588H94.2979ZM98.5615 44H97.7822V42.2093L96.0935 39.4629H96.9378L98.1718 41.5227L99.4151 39.4629H100.25L98.5615 42.2093V44ZM102.841 42.7289C102.841 42.2402 103.196 41.8041 103.908 41.4206C103.716 41.1979 103.586 41.0247 103.518 40.901C103.456 40.7773 103.425 40.6196 103.425 40.4278C103.425 40.0938 103.549 39.8309 103.796 39.6392C104.044 39.4474 104.35 39.3515 104.715 39.3515C105.074 39.3515 105.37 39.4443 105.606 39.6299C105.841 39.8093 105.958 40.0536 105.958 40.3629C105.958 40.7959 105.612 41.201 104.919 41.5784C105.21 41.9309 105.491 42.2557 105.763 42.5526C105.899 42.3485 106.004 42.1165 106.079 41.8567L106.608 42.2371C106.502 42.5216 106.376 42.7814 106.227 43.0165C106.277 43.066 106.376 43.1649 106.524 43.3134C106.673 43.4557 106.793 43.5732 106.886 43.666L106.403 44.1206L105.81 43.5268C105.42 43.8794 104.944 44.0557 104.381 44.0557C103.942 44.0557 103.574 43.9351 103.277 43.6938C102.986 43.4526 102.841 43.1309 102.841 42.7289ZM104.464 43.4247C104.736 43.4247 105.027 43.2979 105.336 43.0443C104.835 42.5062 104.489 42.1227 104.297 41.8938C103.809 42.1598 103.564 42.4474 103.564 42.7567C103.564 42.9546 103.648 43.1155 103.815 43.2392C103.982 43.3629 104.198 43.4247 104.464 43.4247ZM104.149 40.3814C104.149 40.499 104.174 40.6041 104.223 40.6969C104.279 40.7897 104.384 40.9289 104.539 41.1144C105.027 40.8732 105.271 40.6474 105.271 40.4371C105.271 40.2763 105.216 40.1526 105.104 40.066C104.999 39.9732 104.869 39.9268 104.715 39.9268C104.566 39.9268 104.433 39.9732 104.316 40.066C104.204 40.1588 104.149 40.2639 104.149 40.3814ZM111.409 42.7289L112.42 39.4629H113.107L114.118 42.7289L115.259 39.4629H116.085L114.498 44H113.737L112.791 40.8918H112.735L111.78 44H111.019L109.432 39.4629H110.258L111.409 42.7289ZM120.262 39.4629V40.1773H117.841V41.3835H120.012V42.0608H117.841V43.2763H120.336V44H117.071V39.4629H120.262ZM121.586 44V39.4629H123.349C123.986 39.4629 124.419 39.599 124.647 39.8711C124.852 40.1 124.954 40.3629 124.954 40.6598C124.954 41.0186 124.842 41.2845 124.62 41.4577C124.545 41.5134 124.434 41.5753 124.286 41.6433C124.57 41.7052 124.793 41.832 124.954 42.0237C125.121 42.2155 125.204 42.4536 125.204 42.7381C125.204 43.0969 125.074 43.3969 124.814 43.6381C124.561 43.8794 124.146 44 123.571 44H121.586ZM122.356 41.3464H123.321C123.877 41.3464 124.156 41.1577 124.156 40.7804C124.156 40.5639 124.088 40.4093 123.952 40.3165C123.822 40.2175 123.614 40.168 123.33 40.168H122.356V41.3464ZM122.356 43.2948H123.553C123.85 43.2948 124.069 43.2485 124.211 43.1557C124.354 43.0567 124.425 42.8897 124.425 42.6546C124.425 42.2526 124.103 42.0515 123.46 42.0515H122.356V43.2948Z" fill="black"/>
</g>
<defs>
<clipPath id="clip0_68_3">
<rect width="150" height="50" fill="white"/>
</clipPath>
</defs>
</svg>
