<svg width="149" height="154" viewBox="0 0 149 154" fill="none" xmlns="http://www.w3.org/2000/svg">
<path fill-rule="evenodd" clip-rule="evenodd" d="M56.1164 46.2442L50.6309 40.7587L74.7782 16.6114L98.2844 40.1175L92.2747 46.1272C92.2192 46.1827 92.1655 46.2393 92.1136 46.2969L80.9361 35.1194C80.9399 35.0329 80.9418 34.9458 80.9418 34.8584C80.9418 31.581 78.285 28.9243 75.0077 28.9243C71.7304 28.9243 69.0736 31.581 69.0736 34.8584C69.0736 37.8154 71.2365 40.2673 74.0667 40.7183L97.6729 64.3245L95.0342 66.9632L88.5964 60.5254C86.8749 58.8039 84.0838 58.8039 82.3623 60.5254C80.6408 62.2469 80.6408 65.038 82.3623 66.7595L88.8001 73.1974L74.2362 87.7612L50.6519 64.1769L56.1164 58.7125L67.4018 69.9979C67.6751 73.0217 70.2166 75.391 73.3116 75.391C76.5889 75.391 79.2457 72.7342 79.2457 69.4569C79.2457 66.2076 76.6341 63.5683 73.3955 63.5233L62.3505 52.4783L65.1325 49.6964L69.2008 53.7647C70.9223 55.4862 73.7134 55.4862 75.4349 53.7647C77.1565 52.0432 77.1565 49.2521 75.4349 47.5305L68.3396 40.4352C67.3353 39.4309 65.9669 39.0125 64.6592 39.18C63.6546 39.2623 62.6728 39.6877 61.9042 40.4563L56.1164 46.2442ZM74.2702 98.3491C73.113 98.3719 71.9486 97.9419 71.0656 97.0588L41.3335 67.3268C40.1605 66.1537 39.7867 64.4841 40.2123 62.9947C40.4041 62.2647 40.7861 61.5744 41.3583 61.0022L49.8822 52.4783L41.3335 43.9296C40.4588 43.0549 40.0286 41.9042 40.0427 40.7579C40.029 39.6121 40.4593 38.4621 41.3335 37.5878L71.6303 7.29102C72.6301 6.29121 73.9907 5.87207 75.293 6.03358C76.2577 6.13771 77.1947 6.55956 77.9342 7.29911L107.666 37.0312C109.388 38.7527 109.388 41.5438 107.666 43.2653C107.531 43.401 107.388 43.526 107.24 43.6402C107.17 43.7212 107.097 43.8002 107.02 43.8771L98.5223 52.3749C98.4669 52.4303 98.4103 52.484 98.3527 52.5359L106.998 61.1817C107.363 61.5459 107.65 61.9579 107.86 62.3975C108.664 64.0422 108.382 66.0836 107.015 67.4506L77.4077 97.058C76.5418 97.924 75.4052 98.3543 74.2702 98.3491Z" fill="#00C2FF"/>
<circle cx="73.3223" cy="69.4583" r="2.89092" transform="rotate(-44.9216 73.3223 69.4583)" fill="black" stroke="white"/>
<circle cx="75.0179" cy="34.8718" r="2.89092" transform="rotate(-44.9216 75.0179 34.8718)" fill="white" stroke="black"/>
<path d="M30.1113 108.389C30.1113 109.177 30.4038 109.75 30.9887 110.106C31.5735 110.538 32.8196 110.983 34.7268 111.441C36.7357 111.924 38.1979 112.585 39.1134 113.424C40.0543 114.263 40.5247 115.471 40.5247 117.048C40.5247 118.701 39.9017 120.036 38.6557 121.053C37.4351 122.07 35.833 122.579 33.8495 122.579C30.9759 122.579 28.3821 121.562 26.068 119.527L28.0515 117.162C29.9842 118.815 31.9423 119.642 33.9258 119.642C34.9175 119.642 35.7186 119.426 36.3289 118.993C36.9392 118.536 37.2443 117.951 37.2443 117.239C37.2443 116.527 36.9646 115.967 36.4052 115.56C35.8711 115.153 34.9048 114.785 33.5062 114.454C31.0904 113.895 29.412 113.233 28.4711 112.471C27.3777 111.631 26.8309 110.347 26.8309 108.618C26.8309 106.94 27.4412 105.63 28.6619 104.689C29.8825 103.723 31.4464 103.24 33.3536 103.24C35.922 103.24 38.1217 103.99 39.9526 105.49L38.2742 107.855C37.7148 107.347 36.9646 106.94 36.0237 106.635C35.0828 106.304 34.1546 106.139 33.2392 106.139C32.2983 106.139 31.5354 106.342 30.9505 106.749C30.3911 107.13 30.1113 107.677 30.1113 108.389ZM45.7687 118.116L43.8996 122.35H40.5429L48.7821 103.697H52.1388L60.3398 122.35H56.9831L55.114 118.116H45.7687ZM53.8553 115.179L50.4604 107.512L47.0656 115.179H53.8553ZM72.5136 115.56L77.3961 122.35H73.3909L68.9281 116.056H64.8085V122.35H61.6425V103.697H68.5848C71.4074 103.697 73.4291 104.181 74.6497 105.147C75.8958 106.088 76.5188 107.626 76.5188 109.762C76.5188 112.839 75.1837 114.772 72.5136 115.56ZM68.6992 113.233C70.4538 113.233 71.6617 112.966 72.3229 112.432C72.9841 111.898 73.3147 110.996 73.3147 109.724C73.3147 108.504 72.9841 107.677 72.3229 107.245C71.6617 106.787 70.4793 106.558 68.7755 106.558H64.8085V113.233H68.6992ZM86.1952 103.697C88.9924 103.697 91.0395 104.244 92.3364 105.338C93.6588 106.406 94.3199 108.071 94.3199 110.335C94.3199 112.572 93.6588 114.225 92.3364 115.293C91.0141 116.336 88.9797 116.857 86.2333 116.857H82.9529V122.35H79.7869V103.697H86.1952ZM86.5766 114.035C88.255 114.035 89.4247 113.717 90.0859 113.081C90.7725 112.445 91.1158 111.441 91.1158 110.068C91.1158 108.796 90.7216 107.893 89.9333 107.359C89.145 106.825 87.8735 106.558 86.1189 106.558H82.9529V114.035H86.5766ZM96.7751 103.697H99.9411V122.35H96.7751V103.697ZM117.79 103.697H120.917V122.35H117.523L106.957 108.732V122.35H103.791V103.697H106.957L117.79 117.62V103.697Z" fill="black"/>
<path d="M42.5105 135.577C42.5105 135.79 42.5896 135.944 42.7477 136.041C42.9057 136.158 43.2425 136.278 43.758 136.402C44.3009 136.532 44.6961 136.711 44.9435 136.938C45.1978 137.164 45.325 137.491 45.325 137.917C45.325 138.364 45.1566 138.725 44.8198 138.999C44.4899 139.274 44.0569 139.412 43.5209 139.412C42.7442 139.412 42.0432 139.137 41.4178 138.587L41.9538 137.948C42.4762 138.395 43.0054 138.618 43.5415 138.618C43.8095 138.618 44.026 138.56 44.191 138.443C44.3559 138.319 44.4384 138.161 44.4384 137.969C44.4384 137.776 44.3628 137.625 44.2116 137.515C44.0672 137.405 43.8061 137.305 43.4281 137.216C42.7751 137.065 42.3215 136.886 42.0672 136.68C41.7717 136.453 41.6239 136.106 41.6239 135.639C41.6239 135.185 41.7889 134.831 42.1188 134.577C42.4487 134.316 42.8714 134.185 43.3868 134.185C44.081 134.185 44.6755 134.388 45.1703 134.793L44.7167 135.432C44.5655 135.295 44.3628 135.185 44.1085 135.103C43.8542 135.013 43.6033 134.969 43.3559 134.969C43.1016 134.969 42.8954 135.024 42.7373 135.133C42.5861 135.237 42.5105 135.384 42.5105 135.577ZM50.2273 134.309V135.103H47.5366V136.443H49.949V137.195H47.5366V138.546H50.3098V139.35H46.6809V134.309H50.2273ZM55.4194 137.958L55.9658 138.515C55.4434 139.113 54.7974 139.412 54.0276 139.412C53.2647 139.412 52.629 139.168 52.1204 138.68C51.6187 138.185 51.3678 137.563 51.3678 136.814C51.3678 136.058 51.6255 135.432 52.141 134.938C52.6565 134.436 53.306 134.185 54.0895 134.185C54.8592 134.185 55.5087 134.474 56.0379 135.051L55.5018 135.639C55.2613 135.405 55.0345 135.243 54.8214 135.154C54.6084 135.065 54.3575 135.02 54.0688 135.02C53.5534 135.02 53.1204 135.185 52.7699 135.515C52.4262 135.845 52.2544 136.264 52.2544 136.773C52.2544 137.274 52.4262 137.7 52.7699 138.051C53.1135 138.402 53.5225 138.577 53.9967 138.577C54.2853 138.577 54.5328 138.529 54.7389 138.432C54.952 138.336 55.1788 138.178 55.4194 137.958ZM59.3824 138.597C59.7741 138.597 60.0834 138.463 60.3102 138.195C60.5439 137.927 60.6607 137.563 60.6607 137.103V134.309H61.5164V137.133C61.5164 137.848 61.3205 138.405 60.9288 138.804C60.537 139.202 60.0215 139.402 59.3824 139.402C58.7432 139.402 58.2277 139.202 57.836 138.804C57.4442 138.405 57.2484 137.848 57.2484 137.133V134.309H58.0937V137.103C58.0937 137.57 58.2106 137.934 58.4442 138.195C58.671 138.463 58.9837 138.597 59.3824 138.597ZM66.0952 137.515L67.4148 139.35H66.3323L65.1262 137.649H64.0128V139.35H63.1571V134.309H65.0334C65.7963 134.309 66.3427 134.439 66.6725 134.7C67.0093 134.955 67.1777 135.371 67.1777 135.948C67.1777 136.78 66.8169 137.302 66.0952 137.515ZM65.0643 136.886C65.5385 136.886 65.865 136.814 66.0437 136.67C66.2224 136.525 66.3117 136.281 66.3117 135.938C66.3117 135.608 66.2224 135.384 66.0437 135.268C65.865 135.144 65.5454 135.082 65.0849 135.082H64.0128V136.886H65.0643ZM68.711 134.309H69.5667V139.35H68.711V134.309ZM73.1643 135.082V139.35H72.3086V135.082H70.7829V134.309H74.6901V135.082H73.1643ZM77.9017 139.35H77.0357V137.36L75.1594 134.309H76.0976L77.4687 136.597L78.8502 134.309H79.778L77.9017 137.36V139.35ZM82.6562 137.938C82.6562 137.395 83.0514 136.91 83.8417 136.484C83.6287 136.237 83.4844 136.044 83.4088 135.907C83.34 135.769 83.3057 135.594 83.3057 135.381C83.3057 135.01 83.4431 134.718 83.718 134.505C83.9929 134.292 84.3332 134.185 84.7387 134.185C85.1373 134.185 85.4672 134.288 85.7283 134.494C85.9895 134.694 86.1201 134.965 86.1201 135.309C86.1201 135.79 85.7352 136.24 84.9655 136.659C85.2885 137.051 85.6012 137.412 85.9036 137.742C86.0548 137.515 86.1716 137.257 86.2541 136.969L86.8417 137.391C86.7249 137.707 86.584 137.996 86.4191 138.257C86.474 138.312 86.584 138.422 86.749 138.587C86.9139 138.745 87.0479 138.876 87.151 138.979L86.6149 139.484L85.9551 138.824C85.5222 139.216 84.9929 139.412 84.3675 139.412C83.8795 139.412 83.4706 139.278 83.1407 139.01C82.8177 138.742 82.6562 138.384 82.6562 137.938ZM84.4603 138.711C84.7627 138.711 85.0857 138.57 85.4294 138.288C84.8727 137.69 84.4878 137.264 84.2747 137.01C83.7318 137.305 83.4603 137.625 83.4603 137.969C83.4603 138.188 83.5531 138.367 83.7387 138.505C83.9242 138.642 84.1648 138.711 84.4603 138.711ZM84.1098 135.329C84.1098 135.46 84.1373 135.577 84.1923 135.68C84.2541 135.783 84.371 135.938 84.5428 136.144C85.0857 135.876 85.3572 135.625 85.3572 135.391C85.3572 135.213 85.2954 135.075 85.1716 134.979C85.0548 134.876 84.9105 134.824 84.7387 134.824C84.5737 134.824 84.4259 134.876 84.2954 134.979C84.1716 135.082 84.1098 135.199 84.1098 135.329ZM92.1762 137.938L93.2999 134.309H94.0628L95.1865 137.938L96.4546 134.309H97.3721L95.6092 139.35H94.7638L93.7123 135.896H93.6504L92.5886 139.35H91.7432L89.9803 134.309H90.8979L92.1762 137.938ZM102.014 134.309V135.103H99.3229V136.443H101.735V137.195H99.3229V138.546H102.096V139.35H98.4672V134.309H102.014ZM103.484 139.35V134.309H105.443C106.151 134.309 106.632 134.46 106.886 134.762C107.113 135.017 107.226 135.309 107.226 135.639C107.226 136.037 107.103 136.333 106.855 136.525C106.773 136.587 106.649 136.656 106.484 136.731C106.8 136.8 107.048 136.941 107.226 137.154C107.412 137.367 107.505 137.632 107.505 137.948C107.505 138.347 107.36 138.68 107.072 138.948C106.79 139.216 106.329 139.35 105.69 139.35H103.484ZM104.34 136.402H105.412C106.03 136.402 106.34 136.192 106.34 135.773C106.34 135.532 106.264 135.36 106.113 135.257C105.969 135.147 105.738 135.092 105.422 135.092H104.34V136.402ZM104.34 138.566H105.67C106 138.566 106.243 138.515 106.402 138.412C106.56 138.302 106.639 138.116 106.639 137.855C106.639 137.408 106.281 137.185 105.567 137.185H104.34V138.566Z" fill="black"/>
</svg>
