<svg width="250" height="220" viewBox="0 0 250 220" fill="none" xmlns="http://www.w3.org/2000/svg">
<mask id="path-1-outside-1_67_2" maskUnits="userSpaceOnUse" x="79" y="11" width="92" height="123" fill="black">
<rect fill="white" x="79" y="11" width="92" height="123"/>
<path fill-rule="evenodd" clip-rule="evenodd" d="M101.122 64.8812L93.9139 57.6731L125.644 25.9434L156.531 56.8309L148.633 64.7286C148.561 64.8014 148.49 64.8756 148.422 64.9511L133.734 50.2633C133.739 50.1498 133.742 50.0357 133.742 49.9209C133.742 45.6145 130.251 42.1235 125.944 42.1235C121.638 42.1235 118.147 45.6145 118.147 49.9209C118.147 53.8069 120.989 57.0289 124.709 57.6211L155.726 88.6387L152.259 92.1059L143.801 83.6479C141.539 81.3858 137.872 81.3858 135.609 83.6479C133.347 85.91 133.347 89.5775 135.609 91.8396L144.067 100.298L124.93 119.435L93.9408 88.4458L101.122 81.2647L115.951 96.0936C116.31 100.067 119.65 103.18 123.716 103.18C128.023 103.18 131.514 99.6889 131.514 95.3824C131.514 91.1128 128.082 87.6446 123.826 87.5857L109.314 73.0729L112.968 69.4182L118.314 74.7643C120.577 77.0264 124.244 77.0264 126.506 74.7644C128.768 72.5023 128.768 68.8347 126.506 66.5726L117.183 57.2492C115.863 55.9296 114.065 55.3798 112.347 55.5998C111.027 55.7077 109.736 56.2668 108.726 57.277L101.122 64.8812ZM125.05 133.347C123.505 133.397 121.944 132.833 120.765 131.653L81.6966 92.5851C80.1633 91.0518 79.6693 88.8727 80.2146 86.9233C80.464 85.9529 80.9686 85.0344 81.7284 84.2746L92.9301 73.0729L81.6966 61.8394C80.5478 60.6906 79.9824 59.1793 80.0004 57.6737C79.9821 56.1677 80.5475 54.656 81.6966 53.5069L121.507 13.6966C122.826 12.3771 124.624 11.8273 126.342 12.0471C127.602 12.1878 128.825 12.7413 129.791 13.7077L168.86 52.776C171.122 55.0381 171.122 58.7056 168.86 60.9677C168.68 61.147 168.492 61.312 168.297 61.4628C168.205 61.5685 168.11 61.6715 168.009 61.7719L156.843 72.9381C156.77 73.0109 156.696 73.0813 156.62 73.1494L167.981 84.5102C168.46 84.989 168.838 85.5308 169.114 86.1089C170.168 88.2697 169.798 90.9505 168.003 92.746L129.098 131.651C127.979 132.769 126.517 133.335 125.05 133.347Z"/>
</mask>
<path fill-rule="evenodd" clip-rule="evenodd" d="M101.122 64.8812L93.9139 57.6731L125.644 25.9434L156.531 56.8309L148.633 64.7286C148.561 64.8014 148.49 64.8756 148.422 64.9511L133.734 50.2633C133.739 50.1498 133.742 50.0357 133.742 49.9209C133.742 45.6145 130.251 42.1235 125.944 42.1235C121.638 42.1235 118.147 45.6145 118.147 49.9209C118.147 53.8069 120.989 57.0289 124.709 57.6211L155.726 88.6387L152.259 92.1059L143.801 83.6479C141.539 81.3858 137.872 81.3858 135.609 83.6479C133.347 85.91 133.347 89.5775 135.609 91.8396L144.067 100.298L124.93 119.435L93.9408 88.4458L101.122 81.2647L115.951 96.0936C116.31 100.067 119.65 103.18 123.716 103.18C128.023 103.18 131.514 99.6889 131.514 95.3824C131.514 91.1128 128.082 87.6446 123.826 87.5857L109.314 73.0729L112.968 69.4182L118.314 74.7643C120.577 77.0264 124.244 77.0264 126.506 74.7644C128.768 72.5023 128.768 68.8347 126.506 66.5726L117.183 57.2492C115.863 55.9296 114.065 55.3798 112.347 55.5998C111.027 55.7077 109.736 56.2668 108.726 57.277L101.122 64.8812ZM125.05 133.347C123.505 133.397 121.944 132.833 120.765 131.653L81.6966 92.5851C80.1633 91.0518 79.6693 88.8727 80.2146 86.9233C80.464 85.9529 80.9686 85.0344 81.7284 84.2746L92.9301 73.0729L81.6966 61.8394C80.5478 60.6906 79.9824 59.1793 80.0004 57.6737C79.9821 56.1677 80.5475 54.656 81.6966 53.5069L121.507 13.6966C122.826 12.3771 124.624 11.8273 126.342 12.0471C127.602 12.1878 128.825 12.7413 129.791 13.7077L168.86 52.776C171.122 55.0381 171.122 58.7056 168.86 60.9677C168.68 61.147 168.492 61.312 168.297 61.4628C168.205 61.5685 168.11 61.6715 168.009 61.7719L156.843 72.9381C156.77 73.0109 156.696 73.0813 156.62 73.1494L167.981 84.5102C168.46 84.989 168.838 85.5308 169.114 86.1089C170.168 88.2697 169.798 90.9505 168.003 92.746L129.098 131.651C127.979 132.769 126.517 133.335 125.05 133.347Z" fill="#00C2FF"/>
<path d="M93.9139 57.6731L93.7017 57.461L93.4896 57.6731L93.7017 57.8853L93.9139 57.6731ZM101.122 64.8812L100.91 65.0933L101.122 65.3054L101.334 65.0933L101.122 64.8812ZM125.644 25.9434L125.856 25.7313L125.644 25.5192L125.431 25.7313L125.644 25.9434ZM156.531 56.8309L156.743 57.0431L156.955 56.8309L156.743 56.6188L156.531 56.8309ZM148.633 64.7286L148.846 64.9407L148.846 64.9407L148.633 64.7286ZM148.422 64.9511L148.21 65.1632L148.434 65.3867L148.645 65.1519L148.422 64.9511ZM133.734 50.2633L133.435 50.2504L133.429 50.3822L133.522 50.4754L133.734 50.2633ZM124.709 57.6211L124.921 57.4089L124.852 57.3401L124.756 57.3248L124.709 57.6211ZM155.726 88.6387L155.938 88.8509L156.151 88.6387L155.938 88.4266L155.726 88.6387ZM152.259 92.1059L152.047 92.318L152.259 92.5301L152.471 92.318L152.259 92.1059ZM143.801 83.6479L144.013 83.4357L144.013 83.4357L143.801 83.6479ZM144.067 100.298L144.28 100.51L144.492 100.298L144.28 100.085L144.067 100.298ZM124.93 119.435L124.718 119.647L124.93 119.859L125.142 119.647L124.93 119.435ZM93.9408 88.4458L93.7286 88.2337L93.5165 88.4458L93.7286 88.6579L93.9408 88.4458ZM101.122 81.2647L101.334 81.0525L101.122 80.8404L100.91 81.0525L101.122 81.2647ZM115.951 96.0936L116.25 96.0666L116.24 95.9584L116.163 95.8815L115.951 96.0936ZM123.826 87.5857L123.614 87.7978L123.7 87.884L123.822 87.8857L123.826 87.5857ZM109.314 73.0729L109.102 72.8608L108.889 73.0729L109.102 73.285L109.314 73.0729ZM112.968 69.4182L113.18 69.2061L112.968 68.994L112.756 69.2061L112.968 69.4182ZM118.314 74.7643L118.102 74.9765L118.102 74.9765L118.314 74.7643ZM126.506 66.5726L126.718 66.3605L126.718 66.3605L126.506 66.5726ZM117.183 57.2492L116.971 57.4613L116.971 57.4613L117.183 57.2492ZM112.347 55.5998L112.372 55.8991L112.385 55.8973L112.347 55.5998ZM120.765 131.653L120.977 131.441L120.977 131.441L120.765 131.653ZM125.05 133.347L125.048 133.047L125.041 133.047L125.05 133.347ZM81.6966 92.5851L81.4845 92.7973L81.4845 92.7973L81.6966 92.5851ZM80.2146 86.9233L80.5036 87.0042L80.5052 86.998L80.2146 86.9233ZM81.7284 84.2746L81.5163 84.0625L81.5163 84.0625L81.7284 84.2746ZM92.9301 73.0729L93.1423 73.285L93.3544 73.0729L93.1423 72.8608L92.9301 73.0729ZM81.6966 61.8394L81.4845 62.0515L81.4845 62.0515L81.6966 61.8394ZM80.0004 57.6737L80.3005 57.6773L80.3004 57.67L80.0004 57.6737ZM81.6966 53.5069L81.4844 53.2948L81.4844 53.2948L81.6966 53.5069ZM121.507 13.6966L121.719 13.9087L121.719 13.9087L121.507 13.6966ZM126.342 12.0471L126.304 12.3447L126.309 12.3452L126.342 12.0471ZM129.791 13.7077L130.003 13.4955L130.003 13.4955L129.791 13.7077ZM168.86 52.776L168.648 52.9881L168.648 52.9881L168.86 52.776ZM168.86 60.9677L169.072 61.1799L169.072 61.1799L168.86 60.9677ZM168.297 61.4628L168.114 61.2253L168.09 61.2437L168.07 61.2664L168.297 61.4628ZM168.009 61.7719L168.221 61.984L168.221 61.984L168.009 61.7719ZM156.843 72.9381L156.631 72.726L156.631 72.726L156.843 72.9381ZM156.62 73.1494L156.42 72.9265L156.185 73.138L156.408 73.3615L156.62 73.1494ZM167.981 84.5102L168.193 84.298L168.193 84.298L167.981 84.5102ZM169.114 86.1089L168.843 86.2382L168.844 86.2405L169.114 86.1089ZM93.7017 57.8853L100.91 65.0933L101.334 64.669L94.126 57.461L93.7017 57.8853ZM125.431 25.7313L93.7017 57.461L94.126 57.8853L125.856 26.1555L125.431 25.7313ZM156.743 56.6188L125.856 25.7313L125.431 26.1555L156.319 57.0431L156.743 56.6188ZM148.846 64.9407L156.743 57.0431L156.319 56.6188L148.421 64.5165L148.846 64.9407ZM148.645 65.1519C148.71 65.0802 148.776 65.0098 148.846 64.9407L148.421 64.5165C148.345 64.5929 148.271 64.6709 148.199 64.7503L148.645 65.1519ZM133.522 50.4754L148.21 65.1632L148.634 64.739L133.947 50.0512L133.522 50.4754ZM133.442 49.9209C133.442 50.0313 133.439 50.1412 133.435 50.2504L134.034 50.2763C134.039 50.1584 134.042 50.04 134.042 49.9209H133.442ZM125.944 42.4235C130.085 42.4235 133.442 45.7802 133.442 49.9209H134.042C134.042 45.4488 130.416 41.8235 125.944 41.8235V42.4235ZM118.447 49.9209C118.447 45.7802 121.804 42.4235 125.944 42.4235V41.8235C121.472 41.8235 117.847 45.4488 117.847 49.9209H118.447ZM124.756 57.3248C121.18 56.7554 118.447 53.6571 118.447 49.9209H117.847C117.847 53.9567 120.799 57.3023 124.661 57.9173L124.756 57.3248ZM155.938 88.4266L124.921 57.4089L124.496 57.8332L155.514 88.8509L155.938 88.4266ZM152.471 92.318L155.938 88.8509L155.514 88.4266L152.047 91.8937L152.471 92.318ZM143.589 83.86L152.047 92.318L152.471 91.8937L144.013 83.4357L143.589 83.86ZM135.822 83.86C137.967 81.7151 141.444 81.7151 143.589 83.86L144.013 83.4357C141.634 81.0565 137.777 81.0565 135.397 83.4357L135.822 83.86ZM135.822 91.6275C133.677 89.4826 133.677 86.0049 135.822 83.86L135.397 83.4357C133.018 85.815 133.018 89.6725 135.397 92.0518L135.822 91.6275ZM144.28 100.085L135.822 91.6275L135.397 92.0518L143.855 100.51L144.28 100.085ZM125.142 119.647L144.28 100.51L143.855 100.085L124.718 119.223L125.142 119.647ZM93.7286 88.6579L124.718 119.647L125.142 119.223L94.1529 88.2337L93.7286 88.6579ZM100.91 81.0525L93.7286 88.2337L94.1529 88.6579L101.334 81.4768L100.91 81.0525ZM116.163 95.8815L101.334 81.0525L100.91 81.4768L115.739 96.3058L116.163 95.8815ZM123.716 102.88C119.806 102.88 116.595 99.8866 116.25 96.0666L115.652 96.1206C116.025 100.247 119.493 103.48 123.716 103.48V102.88ZM131.214 95.3824C131.214 99.5232 127.857 102.88 123.716 102.88V103.48C128.188 103.48 131.814 99.8546 131.814 95.3824H131.214ZM123.822 87.8857C127.914 87.9423 131.214 91.2771 131.214 95.3824H131.814C131.814 90.9485 128.25 87.3469 123.831 87.2857L123.822 87.8857ZM109.102 73.285L123.614 87.7978L124.039 87.3736L109.526 72.8608L109.102 73.285ZM112.756 69.2061L109.102 72.8608L109.526 73.285L113.18 69.6304L112.756 69.2061ZM118.527 74.5522L113.18 69.2061L112.756 69.6304L118.102 74.9765L118.527 74.5522ZM126.294 74.5522C124.149 76.6972 120.672 76.6972 118.527 74.5522L118.102 74.9765C120.482 77.3557 124.339 77.3557 126.718 74.9765L126.294 74.5522ZM126.294 66.7847C128.439 68.9297 128.439 72.4073 126.294 74.5522L126.718 74.9765C129.098 72.5972 129.098 68.7397 126.718 66.3605L126.294 66.7847ZM116.971 57.4613L126.294 66.7847L126.718 66.3605L117.395 57.0371L116.971 57.4613ZM112.385 55.8973C114.015 55.6887 115.72 56.2102 116.971 57.4613L117.395 57.0371C116.007 55.649 114.115 55.071 112.309 55.3022L112.385 55.8973ZM108.938 57.4891C109.896 56.531 111.119 56.0011 112.372 55.8988L112.323 55.3008C110.934 55.4143 109.576 56.0025 108.514 57.0649L108.938 57.4891ZM101.334 65.0933L108.938 57.4891L108.514 57.0649L100.91 64.669L101.334 65.0933ZM120.553 131.866C121.793 133.106 123.436 133.7 125.06 133.647L125.041 133.047C123.575 133.095 122.095 132.559 120.977 131.441L120.553 131.866ZM81.4845 92.7973L120.553 131.866L120.977 131.441L81.9087 92.373L81.4845 92.7973ZM79.9257 86.8425C79.3524 88.892 79.8714 91.1842 81.4845 92.7973L81.9087 92.373C80.4551 90.9194 79.9862 88.8534 80.5035 87.0041L79.9257 86.8425ZM81.5163 84.0625C80.7175 84.8613 80.1864 85.8276 79.9241 86.8487L80.5052 86.998C80.7416 86.0781 81.2197 85.2076 81.9406 84.4867L81.5163 84.0625ZM92.718 72.8608L81.5163 84.0625L81.9406 84.4867L93.1423 73.285L92.718 72.8608ZM81.4845 62.0515L92.718 73.285L93.1423 72.8608L81.9087 61.6272L81.4845 62.0515ZM79.7005 57.6701C79.6815 59.2532 80.2762 60.8432 81.4845 62.0515L81.9087 61.6272C80.8194 60.5379 80.2833 59.1054 80.3004 57.6773L79.7005 57.6701ZM81.4844 53.2948C80.2759 54.5033 79.6812 56.0939 79.7005 57.6773L80.3004 57.67C80.283 56.2416 80.8191 54.8087 81.9087 53.7191L81.4844 53.2948ZM121.295 13.4844L81.4844 53.2948L81.9087 53.7191L121.719 13.9087L121.295 13.4844ZM126.38 11.7495C124.574 11.5184 122.683 12.0965 121.295 13.4844L121.719 13.9087C122.97 12.6577 124.674 12.1361 126.304 12.3447L126.38 11.7495ZM130.003 13.4955C128.987 12.4794 127.701 11.8969 126.375 11.7489L126.309 12.3452C127.504 12.4787 128.663 13.0033 129.579 13.9198L130.003 13.4955ZM169.072 52.5638L130.003 13.4955L129.579 13.9198L168.648 52.9881L169.072 52.5638ZM169.072 61.1799C171.451 58.8006 171.451 54.9431 169.072 52.5638L168.648 52.9881C170.792 55.133 170.792 58.6107 168.648 60.7556L169.072 61.1799ZM168.48 61.7004C168.686 61.5417 168.883 61.3682 169.072 61.1799L168.648 60.7556C168.477 60.9257 168.299 61.0823 168.114 61.2253L168.48 61.7004ZM168.221 61.984C168.327 61.8786 168.427 61.7703 168.524 61.6592L168.07 61.2664C167.983 61.3667 167.892 61.4645 167.797 61.5598L168.221 61.984ZM157.055 73.1502L168.221 61.984L167.797 61.5598L156.631 72.726L157.055 73.1502ZM156.821 73.3722C156.901 73.3007 156.979 73.2267 157.055 73.1502L156.631 72.726C156.562 72.795 156.491 72.8619 156.42 72.9265L156.821 73.3722ZM168.193 84.298L156.833 72.9372L156.408 73.3615L167.769 84.7223L168.193 84.298ZM169.384 85.9796C169.094 85.3712 168.697 84.8013 168.193 84.298L167.769 84.7223C168.224 85.1767 168.581 85.6904 168.843 86.2382L169.384 85.9796ZM168.215 92.9581C170.103 91.0694 170.492 88.2496 169.383 85.9773L168.844 86.2405C169.844 88.2897 169.493 90.8317 167.79 92.5339L168.215 92.9581ZM129.31 131.863L168.215 92.9581L167.79 92.5339L128.886 131.438L129.31 131.863ZM125.053 133.647C126.595 133.634 128.133 133.039 129.31 131.863L128.886 131.438C127.825 132.499 126.439 133.035 125.048 133.047L125.053 133.647Z" fill="black" mask="url(#path-1-outside-1_67_2)"/>
<circle cx="123.731" cy="95.3862" r="3.95571" transform="rotate(-44.9216 123.731 95.3862)" fill="black" stroke="white"/>
<circle cx="125.958" cy="49.9379" r="3.95571" transform="rotate(-44.9216 125.958 49.9379)" fill="white" stroke="black"/>
<path d="M76.5158 194.34C76.5158 194.66 76.6344 194.892 76.8715 195.036C77.1086 195.211 77.6138 195.392 78.387 195.577C79.2014 195.773 79.7942 196.041 80.1653 196.381C80.5467 196.722 80.7375 197.211 80.7375 197.851C80.7375 198.521 80.4849 199.062 79.9797 199.474C79.4849 199.887 78.8354 200.093 78.0313 200.093C76.8663 200.093 75.8148 199.68 74.8766 198.856L75.6808 197.897C76.4643 198.567 77.2581 198.902 78.0622 198.902C78.4643 198.902 78.789 198.814 79.0364 198.639C79.2839 198.454 79.4076 198.216 79.4076 197.928C79.4076 197.639 79.2942 197.412 79.0674 197.247C78.8509 197.082 78.4591 196.933 77.8921 196.799C76.9127 196.572 76.2323 196.304 75.8509 195.995C75.4076 195.655 75.1859 195.134 75.1859 194.433C75.1859 193.753 75.4333 193.222 75.9282 192.84C76.423 192.448 77.0571 192.253 77.8303 192.253C78.8715 192.253 79.7632 192.557 80.5055 193.165L79.8251 194.124C79.5983 193.918 79.2942 193.753 78.9127 193.629C78.5313 193.495 78.155 193.428 77.7839 193.428C77.4024 193.428 77.0931 193.51 76.856 193.675C76.6292 193.83 76.5158 194.052 76.5158 194.34ZM88.091 192.438V193.629H84.0549V195.639H87.6734V196.768H84.0549V198.794H88.2147V200H82.7714V192.438H88.091ZM95.879 197.912L96.6986 198.747C95.9151 199.644 94.9461 200.093 93.7914 200.093C92.6471 200.093 91.6935 199.727 90.9306 198.995C90.178 198.253 89.8017 197.32 89.8017 196.196C89.8017 195.062 90.1883 194.124 90.9615 193.381C91.7347 192.629 92.7089 192.253 93.8842 192.253C95.0388 192.253 96.0131 192.686 96.8069 193.552L96.0028 194.433C95.6419 194.082 95.3017 193.84 94.9821 193.706C94.6625 193.572 94.2863 193.505 93.8533 193.505C93.0801 193.505 92.4306 193.753 91.9048 194.247C91.3893 194.742 91.1316 195.371 91.1316 196.134C91.1316 196.887 91.3893 197.526 91.9048 198.052C92.4203 198.577 93.0337 198.84 93.745 198.84C94.178 198.84 94.5491 198.768 94.8584 198.624C95.178 198.479 95.5182 198.242 95.879 197.912ZM101.824 198.871C102.411 198.871 102.875 198.67 103.215 198.268C103.566 197.866 103.741 197.32 103.741 196.629V192.438H105.025V196.675C105.025 197.747 104.731 198.582 104.143 199.18C103.556 199.778 102.782 200.077 101.824 200.077C100.865 200.077 100.092 199.778 99.504 199.18C98.9163 198.582 98.6225 197.747 98.6225 196.675V192.438H99.8906V196.629C99.8906 197.33 100.066 197.876 100.416 198.268C100.757 198.67 101.226 198.871 101.824 198.871ZM111.893 197.247L113.872 200H112.249L110.439 197.448H108.769V200H107.486V192.438H110.3C111.444 192.438 112.264 192.634 112.759 193.026C113.264 193.407 113.517 194.031 113.517 194.897C113.517 196.144 112.975 196.928 111.893 197.247ZM110.346 196.304C111.058 196.304 111.547 196.196 111.816 195.979C112.084 195.763 112.218 195.397 112.218 194.881C112.218 194.387 112.084 194.052 111.816 193.876C111.547 193.691 111.068 193.598 110.377 193.598H108.769V196.304H110.346ZM115.816 192.438H117.1V200H115.816V192.438ZM122.496 193.598V200H121.213V193.598H118.924V192.438H124.785V193.598H122.496ZM129.603 200H128.304V197.015L125.489 192.438H126.896L128.953 195.871L131.025 192.438H132.417L129.603 197.015V200ZM136.734 197.881C136.734 197.067 137.327 196.34 138.513 195.701C138.193 195.33 137.977 195.041 137.863 194.835C137.76 194.629 137.708 194.366 137.708 194.046C137.708 193.49 137.915 193.052 138.327 192.732C138.739 192.412 139.25 192.253 139.858 192.253C140.456 192.253 140.951 192.407 141.343 192.716C141.734 193.015 141.93 193.423 141.93 193.938C141.93 194.66 141.353 195.335 140.198 195.964C140.683 196.552 141.152 197.093 141.605 197.588C141.832 197.247 142.007 196.861 142.131 196.428L143.013 197.062C142.837 197.536 142.626 197.969 142.379 198.361C142.461 198.443 142.626 198.608 142.873 198.856C143.121 199.093 143.322 199.289 143.477 199.443L142.672 200.201L141.683 199.211C141.033 199.799 140.239 200.093 139.301 200.093C138.569 200.093 137.956 199.892 137.461 199.49C136.977 199.088 136.734 198.552 136.734 197.881ZM139.44 199.041C139.894 199.041 140.379 198.83 140.894 198.407C140.059 197.51 139.482 196.871 139.162 196.49C138.348 196.933 137.94 197.412 137.94 197.928C137.94 198.258 138.08 198.526 138.358 198.732C138.636 198.938 138.997 199.041 139.44 199.041ZM138.915 193.969C138.915 194.165 138.956 194.34 139.038 194.495C139.131 194.649 139.306 194.881 139.564 195.191C140.379 194.789 140.786 194.412 140.786 194.062C140.786 193.794 140.693 193.588 140.507 193.443C140.332 193.289 140.116 193.211 139.858 193.211C139.611 193.211 139.389 193.289 139.193 193.443C139.007 193.598 138.915 193.773 138.915 193.969ZM151.014 197.881L152.7 192.438H153.844L155.53 197.881L157.432 192.438H158.808L156.164 200H154.896L153.318 194.82H153.226L151.633 200H150.365L147.72 192.438H149.097L151.014 197.881ZM165.77 192.438V193.629H161.734V195.639H165.353V196.768H161.734V198.794H165.894V200H160.451V192.438H165.77ZM167.976 200V192.438H170.914C171.976 192.438 172.698 192.665 173.079 193.119C173.419 193.5 173.589 193.938 173.589 194.433C173.589 195.031 173.404 195.474 173.033 195.763C172.909 195.856 172.723 195.959 172.476 196.072C172.95 196.175 173.321 196.387 173.589 196.706C173.868 197.026 174.007 197.423 174.007 197.897C174.007 198.495 173.79 198.995 173.358 199.397C172.935 199.799 172.244 200 171.285 200H167.976ZM169.26 195.577H170.868C171.796 195.577 172.26 195.263 172.26 194.634C172.26 194.273 172.146 194.015 171.919 193.861C171.703 193.696 171.358 193.613 170.883 193.613H169.26V195.577ZM169.26 198.825H171.254C171.749 198.825 172.115 198.747 172.352 198.593C172.589 198.428 172.708 198.149 172.708 197.758C172.708 197.088 172.172 196.753 171.1 196.753H169.26V198.825Z" fill="black"/>
<path d="M35.3608 153.701C35.3608 155.299 35.9536 156.459 37.1392 157.18C38.3247 158.057 40.8505 158.959 44.7165 159.887C48.7887 160.866 51.7526 162.206 53.6082 163.907C55.5155 165.608 56.4691 168.057 56.4691 171.253C56.4691 174.603 55.2062 177.309 52.6804 179.371C50.2062 181.433 46.9588 182.464 42.9381 182.464C37.1134 182.464 31.8557 180.402 27.1649 176.278L31.1856 171.485C35.1031 174.835 39.0722 176.51 43.0928 176.51C45.1031 176.51 46.7268 176.072 47.9639 175.196C49.201 174.268 49.8196 173.082 49.8196 171.639C49.8196 170.196 49.2526 169.062 48.1186 168.237C47.0361 167.412 45.0773 166.665 42.2423 165.995C37.3454 164.861 33.9433 163.521 32.0361 161.974C29.8196 160.273 28.7113 157.67 28.7113 154.165C28.7113 150.763 29.9485 148.108 32.4227 146.201C34.8969 144.242 38.067 143.263 41.933 143.263C47.1392 143.263 51.5979 144.784 55.3093 147.825L51.9072 152.619C50.7732 151.588 49.2526 150.763 47.3454 150.144C45.4381 149.474 43.5567 149.139 41.701 149.139C39.7938 149.139 38.2474 149.552 37.0619 150.376C35.9278 151.149 35.3608 152.258 35.3608 153.701ZM67.0986 173.418L63.31 182H56.5059L73.2069 144.191H80.011L96.6347 182H89.8306L86.0419 173.418H67.0986ZM83.4904 167.464L76.609 151.923L69.7275 167.464H83.4904ZM121.311 168.237L131.208 182H123.09L114.043 169.242H105.693V182H99.2753V144.191H113.347C119.069 144.191 123.167 145.17 125.641 147.129C128.167 149.036 129.43 152.155 129.43 156.485C129.43 162.722 126.724 166.639 121.311 168.237ZM113.579 163.521C117.136 163.521 119.585 162.979 120.925 161.897C122.265 160.814 122.935 158.985 122.935 156.407C122.935 153.933 122.265 152.258 120.925 151.381C119.585 150.454 117.188 149.99 113.734 149.99H105.693V163.521H113.579ZM149.044 144.191C154.714 144.191 158.864 145.299 161.493 147.515C164.173 149.68 165.513 153.057 165.513 157.644C165.513 162.18 164.173 165.531 161.493 167.696C158.812 169.809 154.689 170.866 149.122 170.866H142.472V182H136.055V144.191H149.044ZM149.817 165.144C153.22 165.144 155.591 164.5 156.931 163.211C158.323 161.923 159.019 159.887 159.019 157.103C159.019 154.526 158.22 152.696 156.622 151.613C155.024 150.531 152.446 149.99 148.89 149.99H142.472V165.144H149.817ZM170.49 144.191H176.908V182H170.49V144.191ZM213.087 144.191H219.427V182H212.546L191.128 154.397V182H184.711V144.191H191.128L213.087 172.412V144.191Z" fill="black"/>
</svg>
