<svg width="1000" height="350" viewBox="0 0 1000 350" fill="none" xmlns="http://www.w3.org/2000/svg">
<g filter="url(#filter0_d_37_66)">
<path d="M321.536 150.67C321.536 155.997 323.512 159.863 327.464 162.268C331.416 165.189 339.835 168.196 352.722 171.289C366.296 174.553 376.175 179.021 382.361 184.691C388.718 190.361 391.897 198.522 391.897 209.175C391.897 220.344 387.687 229.364 379.268 236.237C371.021 243.11 360.196 246.546 346.794 246.546C327.378 246.546 309.852 239.674 294.216 225.928L307.619 209.948C320.677 221.117 333.907 226.701 347.309 226.701C354.01 226.701 359.423 225.241 363.546 222.32C367.67 219.227 369.732 215.275 369.732 210.464C369.732 205.653 367.842 201.873 364.062 199.124C360.454 196.375 353.924 193.883 344.474 191.649C328.151 187.869 316.811 183.402 310.454 178.247C303.065 172.577 299.371 163.9 299.371 152.216C299.371 140.876 303.495 132.027 311.742 125.67C319.99 119.141 330.557 115.876 343.443 115.876C360.797 115.876 375.66 120.945 388.031 131.082L376.691 147.062C372.911 143.625 367.842 140.876 361.485 138.814C355.127 136.581 348.856 135.464 342.67 135.464C336.313 135.464 331.158 136.838 327.206 139.588C323.426 142.165 321.536 145.859 321.536 150.67ZM427.329 216.392L414.7 245H392.02L447.69 118.969H470.37L525.782 245H503.102L490.473 216.392H427.329ZM481.968 196.546L459.03 144.742L436.092 196.546H481.968ZM608.038 199.124L641.028 245H613.966L583.811 202.474H555.976V245H534.584V118.969H581.492C600.564 118.969 614.224 122.234 622.471 128.763C630.89 135.12 635.1 145.515 635.1 159.948C635.1 180.739 626.079 193.797 608.038 199.124ZM582.265 183.402C594.12 183.402 602.282 181.598 606.749 177.99C611.217 174.381 613.45 168.282 613.45 159.691C613.45 151.443 611.217 145.859 606.749 142.938C602.282 139.845 594.292 138.299 582.78 138.299H555.976V183.402H582.265ZM700.481 118.969C719.381 118.969 733.213 122.663 741.976 130.052C750.911 137.268 755.378 148.522 755.378 163.814C755.378 178.935 750.911 190.103 741.976 197.32C733.041 204.364 719.295 207.887 700.739 207.887H678.574V245H657.182V118.969H700.481ZM703.058 188.814C714.399 188.814 722.302 186.667 726.77 182.371C731.409 178.076 733.728 171.289 733.728 162.01C733.728 153.419 731.065 147.32 725.739 143.711C720.412 140.103 711.821 138.299 699.966 138.299H678.574V188.814H703.058ZM771.967 118.969H793.359V245H771.967V118.969ZM913.957 118.969H935.091V245H912.153L840.761 152.99V245H819.37V118.969H840.761L913.957 213.041V118.969Z" fill="black"/>
</g>
<g filter="url(#filter1_d_37_66)">
<mask id="path-2-outside-1_37_66" maskUnits="userSpaceOnUse" x="53" y="37" width="207" height="276" fill="black">
<rect fill="white" x="53" y="37" width="207" height="276"/>
<path fill-rule="evenodd" clip-rule="evenodd" d="M102.416 157.696L86.2254 141.506L157.434 70.2976L226.624 139.488L208.416 157.696L175.599 124.879C175.61 124.626 175.615 124.371 175.615 124.115C175.615 114.45 167.78 106.615 158.115 106.615C148.45 106.615 140.615 114.45 140.615 124.115C140.615 132.838 146.998 140.071 155.347 141.398L224.956 211.006L217.173 218.789L198.192 199.808C193.116 194.731 184.884 194.731 179.808 199.808C174.731 204.884 174.731 213.116 179.808 218.192L198.789 237.173L155.841 280.121L86.3005 210.581L102.416 194.466L135.687 227.737C136.49 236.656 143.986 243.646 153.115 243.646C162.78 243.646 170.615 235.811 170.615 226.146C170.615 216.566 162.916 208.783 153.368 208.648L120.801 176.081L129 167.881L140.99 179.871C146.067 184.948 154.298 184.948 159.375 179.871C164.452 174.794 164.452 166.563 159.375 161.486L138.45 140.562C135.478 137.589 131.424 136.357 127.555 136.866C124.612 137.12 121.739 138.373 119.487 140.625L102.416 157.696ZM155.84 311.346C152.46 311.387 149.068 310.118 146.489 307.539L58.8076 219.858C55.1399 216.19 54.1219 210.876 55.7537 206.294C56.3712 204.438 57.4187 202.693 58.8961 201.216L84.031 176.081L58.8076 150.858C56.2285 148.279 54.9597 144.886 55.001 141.505C54.9599 138.126 56.2288 134.733 58.8076 132.154L148.154 42.8076C151.219 39.7431 155.433 38.5284 159.408 39.1636C162.092 39.5487 164.679 40.7737 166.744 42.8388L254.426 130.52C258.446 134.541 259.283 140.54 256.935 145.384L257.216 145.665L256.229 146.652C255.724 147.452 255.123 148.208 254.426 148.905C253.729 149.602 252.973 150.203 252.173 150.708L226.801 176.081L252.459 201.739C253.575 202.855 254.445 204.124 255.071 205.478C257.35 210.301 256.495 216.237 252.506 220.225L165.192 307.539C162.613 310.118 159.22 311.387 155.84 311.346Z"/>
</mask>
<path fill-rule="evenodd" clip-rule="evenodd" d="M102.416 157.696L86.2254 141.506L157.434 70.2976L226.624 139.488L208.416 157.696L175.599 124.879C175.61 124.626 175.615 124.371 175.615 124.115C175.615 114.45 167.78 106.615 158.115 106.615C148.45 106.615 140.615 114.45 140.615 124.115C140.615 132.838 146.998 140.071 155.347 141.398L224.956 211.006L217.173 218.789L198.192 199.808C193.116 194.731 184.884 194.731 179.808 199.808C174.731 204.884 174.731 213.116 179.808 218.192L198.789 237.173L155.841 280.121L86.3005 210.581L102.416 194.466L135.687 227.737C136.49 236.656 143.986 243.646 153.115 243.646C162.78 243.646 170.615 235.811 170.615 226.146C170.615 216.566 162.916 208.783 153.368 208.648L120.801 176.081L129 167.881L140.99 179.871C146.067 184.948 154.298 184.948 159.375 179.871C164.452 174.794 164.452 166.563 159.375 161.486L138.45 140.562C135.478 137.589 131.424 136.357 127.555 136.866C124.612 137.12 121.739 138.373 119.487 140.625L102.416 157.696ZM155.84 311.346C152.46 311.387 149.068 310.118 146.489 307.539L58.8076 219.858C55.1399 216.19 54.1219 210.876 55.7537 206.294C56.3712 204.438 57.4187 202.693 58.8961 201.216L84.031 176.081L58.8076 150.858C56.2285 148.279 54.9597 144.886 55.001 141.505C54.9599 138.126 56.2288 134.733 58.8076 132.154L148.154 42.8076C151.219 39.7431 155.433 38.5284 159.408 39.1636C162.092 39.5487 164.679 40.7737 166.744 42.8388L254.426 130.52C258.446 134.541 259.283 140.54 256.935 145.384L257.216 145.665L256.229 146.652C255.724 147.452 255.123 148.208 254.426 148.905C253.729 149.602 252.973 150.203 252.173 150.708L226.801 176.081L252.459 201.739C253.575 202.855 254.445 204.124 255.071 205.478C257.35 210.301 256.495 216.237 252.506 220.225L165.192 307.539C162.613 310.118 159.22 311.387 155.84 311.346Z" fill="#00C2FF"/>
<path d="M86.2254 141.506L85.1648 140.445L84.1041 141.506L85.1648 142.567L86.2254 141.506ZM102.416 157.696L101.355 158.757L102.416 159.818L103.476 158.757L102.416 157.696ZM157.434 70.2976L158.494 69.237L157.434 68.1763L156.373 69.237L157.434 70.2976ZM226.624 139.488L227.685 140.549L228.745 139.488L227.685 138.427L226.624 139.488ZM208.416 157.696L207.355 158.757L208.416 159.818L209.476 158.757L208.416 157.696ZM175.599 124.879L174.1 124.815L174.072 125.474L174.538 125.94L175.599 124.879ZM155.347 141.398L156.408 140.337L156.064 139.993L155.583 139.916L155.347 141.398ZM224.956 211.006L226.017 212.067L227.077 211.006L226.017 209.945L224.956 211.006ZM217.173 218.789L216.113 219.849L217.173 220.91L218.234 219.849L217.173 218.789ZM198.192 199.808L197.132 200.868H197.132L198.192 199.808ZM179.808 199.808L180.868 200.868L179.808 199.808ZM179.808 218.192L180.868 217.132L179.808 218.192ZM198.789 237.173L199.849 238.234L200.91 237.173L199.849 236.113L198.789 237.173ZM155.841 280.121L154.78 281.182L155.841 282.243L156.901 281.182L155.841 280.121ZM86.3005 210.581L85.2399 209.52L84.1792 210.581L85.2399 211.642L86.3005 210.581ZM102.416 194.466L103.476 193.405L102.416 192.345L101.355 193.405L102.416 194.466ZM135.687 227.737L137.18 227.602L137.132 227.061L136.747 226.676L135.687 227.737ZM153.368 208.648L152.307 209.709L152.737 210.139L153.346 210.148L153.368 208.648ZM120.801 176.081L119.74 175.02L118.679 176.081L119.74 177.142L120.801 176.081ZM129 167.881L130.061 166.821L129 165.76L127.94 166.821L129 167.881ZM140.99 179.871L139.929 180.932L140.99 179.871ZM159.375 179.871L160.436 180.932L159.375 179.871ZM159.375 161.486L158.314 162.547L159.375 161.486ZM138.45 140.562L139.511 139.501L138.45 140.562ZM127.555 136.866L127.684 138.36L127.717 138.357L127.751 138.353L127.555 136.866ZM146.489 307.539L145.428 308.6L146.489 307.539ZM155.84 311.346L155.858 309.846L155.84 309.846L155.821 309.846L155.84 311.346ZM58.8076 219.858L57.7469 220.918H57.747L58.8076 219.858ZM55.7537 206.294L57.1667 206.798L57.172 206.783L57.177 206.768L55.7537 206.294ZM58.8961 201.216L59.9568 202.277L59.9568 202.277L58.8961 201.216ZM84.031 176.081L85.0916 177.142L86.1523 176.081L85.0916 175.02L84.031 176.081ZM58.8076 150.858L59.8683 149.797H59.8683L58.8076 150.858ZM55.001 141.505L56.5009 141.524L56.5011 141.506L56.5009 141.487L55.001 141.505ZM58.8076 132.154L57.747 131.094H57.747L58.8076 132.154ZM148.154 42.8076L147.094 41.747V41.747L148.154 42.8076ZM159.408 39.1636L159.172 40.6448L159.183 40.6467L159.195 40.6484L159.408 39.1636ZM166.744 42.8388L165.684 43.8994V43.8994L166.744 42.8388ZM254.426 130.52L255.486 129.459H255.486L254.426 130.52ZM256.935 145.384L255.585 144.73L255.12 145.69L255.874 146.445L256.935 145.384ZM257.216 145.665L258.277 146.726L259.338 145.665L258.277 144.605L257.216 145.665ZM256.229 146.652L255.169 145.592L255.051 145.71L254.961 145.851L256.229 146.652ZM254.426 148.905L253.365 147.844L253.365 147.844L254.426 148.905ZM252.173 150.708L251.371 149.441L251.23 149.53L251.113 149.648L252.173 150.708ZM226.801 176.081L225.74 175.02L224.679 176.081L225.74 177.142L226.801 176.081ZM255.071 205.478L253.709 206.107L253.714 206.118L255.071 205.478ZM252.506 220.225L251.445 219.165V219.165L252.506 220.225ZM165.192 307.539L164.132 306.478L165.192 307.539ZM85.1648 142.567L101.355 158.757L103.476 156.636L87.2861 140.445L85.1648 142.567ZM156.373 69.237L85.1648 140.445L87.2861 142.567L158.494 71.3583L156.373 69.237ZM227.685 138.427L158.494 69.237L156.373 71.3583L225.563 140.549L227.685 138.427ZM209.476 158.757L227.685 140.549L225.563 138.427L207.355 156.636L209.476 158.757ZM174.538 125.94L207.355 158.757L209.476 156.636L176.66 123.819L174.538 125.94ZM174.115 124.115C174.115 124.35 174.11 124.583 174.1 124.815L177.097 124.944C177.109 124.669 177.115 124.393 177.115 124.115H174.115ZM158.115 108.115C166.952 108.115 174.115 115.279 174.115 124.115H177.115C177.115 113.622 168.609 105.115 158.115 105.115V108.115ZM142.115 124.115C142.115 115.279 149.279 108.115 158.115 108.115V105.115C147.622 105.115 139.115 113.622 139.115 124.115H142.115ZM155.583 139.916C147.95 138.703 142.115 132.089 142.115 124.115H139.115C139.115 133.588 146.045 141.438 155.112 142.879L155.583 139.916ZM226.017 209.945L156.408 140.337L154.287 142.458L223.895 212.067L226.017 209.945ZM218.234 219.849L226.017 212.067L223.895 209.945L216.113 217.728L218.234 219.849ZM197.132 200.868L216.113 219.849L218.234 217.728L199.253 198.747L197.132 200.868ZM180.868 200.868C185.359 196.377 192.641 196.377 197.132 200.868L199.253 198.747C193.59 193.084 184.41 193.084 178.747 198.747L180.868 200.868ZM180.868 217.132C176.377 212.641 176.377 205.359 180.868 200.868L178.747 198.747C173.084 204.41 173.084 213.59 178.747 219.253L180.868 217.132ZM199.849 236.113L180.868 217.132L178.747 219.253L197.728 238.234L199.849 236.113ZM156.901 281.182L199.849 238.234L197.728 236.113L154.78 279.061L156.901 281.182ZM85.2399 211.642L154.78 281.182L156.901 279.061L87.3612 209.52L85.2399 211.642ZM101.355 193.405L85.2399 209.52L87.3612 211.642L103.476 195.527L101.355 193.405ZM136.747 226.676L103.476 193.405L101.355 195.527L134.626 228.797L136.747 226.676ZM153.115 242.146C144.77 242.146 137.915 235.756 137.18 227.602L134.193 227.871C135.065 237.557 143.203 245.146 153.115 245.146V242.146ZM169.115 226.146C169.115 234.983 161.952 242.146 153.115 242.146V245.146C163.609 245.146 172.115 236.64 172.115 226.146H169.115ZM153.346 210.148C162.076 210.271 169.115 217.387 169.115 226.146H172.115C172.115 215.744 163.756 207.295 153.389 207.148L153.346 210.148ZM119.74 177.142L152.307 209.709L154.428 207.587L121.861 175.02L119.74 177.142ZM127.94 166.821L119.74 175.02L121.861 177.142L130.061 168.942L127.94 166.821ZM142.051 178.811L130.061 166.821L127.94 168.942L139.929 180.932L142.051 178.811ZM158.314 178.811C153.823 183.302 146.542 183.302 142.051 178.811L139.929 180.932C145.592 186.594 154.773 186.594 160.436 180.932L158.314 178.811ZM158.314 162.547C162.805 167.038 162.805 174.32 158.314 178.811L160.436 180.932C166.098 175.269 166.098 166.088 160.436 160.426L158.314 162.547ZM137.39 141.623L158.314 162.547L160.436 160.426L139.511 139.501L137.39 141.623ZM127.751 138.353C131.177 137.903 134.761 138.994 137.39 141.623L139.511 139.501C136.195 136.185 131.671 134.812 127.36 135.378L127.751 138.353ZM120.548 141.685C122.541 139.692 125.08 138.585 127.684 138.36L127.426 135.371C124.145 135.654 120.938 137.053 118.427 139.564L120.548 141.685ZM103.476 158.757L120.548 141.685L118.427 139.564L101.355 156.636L103.476 158.757ZM145.428 308.6C148.304 311.476 152.091 312.891 155.858 312.846L155.821 309.846C152.829 309.882 149.831 308.76 147.55 306.478L145.428 308.6ZM57.747 220.918L145.428 308.6L147.55 306.478L59.8683 218.797L57.747 220.918ZM54.3406 205.791C52.5218 210.898 53.6544 216.826 57.7469 220.918L59.8683 218.797C56.6253 215.554 55.7219 210.854 57.1667 206.798L54.3406 205.791ZM57.8355 200.155C56.1894 201.801 55.0198 203.748 54.3304 205.821L57.177 206.768C57.7226 205.128 58.6479 203.585 59.9568 202.277L57.8355 200.155ZM82.9703 175.02L57.8355 200.155L59.9568 202.277L85.0916 177.142L82.9703 175.02ZM57.747 151.918L82.9703 177.142L85.0916 175.02L59.8683 149.797L57.747 151.918ZM53.5011 141.487C53.455 145.255 54.8705 149.042 57.747 151.918L59.8683 149.797C57.5866 147.515 56.4643 144.516 56.5009 141.524L53.5011 141.487ZM57.747 131.094C54.8708 133.97 53.4553 137.757 53.5011 141.524L56.5009 141.487C56.4645 138.495 57.5868 135.496 59.8683 133.215L57.747 131.094ZM147.094 41.747L57.747 131.094L59.8683 133.215L149.215 43.8683L147.094 41.747ZM159.645 37.6823C155.215 36.9746 150.512 38.3281 147.094 41.747L149.215 43.8683C151.925 41.1582 155.65 40.0822 159.172 40.6448L159.645 37.6823ZM167.805 41.7781C165.503 39.476 162.615 38.1083 159.621 37.6788L159.195 40.6484C161.57 40.989 163.856 42.0714 165.684 43.8994L167.805 41.7781ZM255.486 129.459L167.805 41.7781L165.684 43.8994L253.365 131.581L255.486 129.459ZM258.285 146.038C260.903 140.637 259.973 133.946 255.486 129.459L253.365 131.581C256.92 135.136 257.663 140.443 255.585 144.73L258.285 146.038ZM258.277 144.605L257.995 144.323L255.874 146.445L256.156 146.726L258.277 144.605ZM257.29 147.713L258.277 146.726L256.156 144.605L255.169 145.592L257.29 147.713ZM255.486 149.965C256.262 149.19 256.933 148.346 257.497 147.454L254.961 145.851C254.515 146.557 253.983 147.226 253.365 147.844L255.486 149.965ZM252.975 151.976C253.867 151.412 254.711 150.741 255.486 149.965L253.365 147.844C252.747 148.462 252.078 148.994 251.371 149.441L252.975 151.976ZM227.861 177.142L253.234 151.769L251.113 149.648L225.74 175.02L227.861 177.142ZM253.519 200.679L227.861 175.02L225.74 177.142L251.398 202.8L253.519 200.679ZM256.432 204.849C255.734 203.337 254.762 201.921 253.519 200.679L251.398 202.8C252.387 203.789 253.157 204.911 253.709 206.107L256.432 204.849ZM253.567 221.286C258.017 216.836 258.968 210.215 256.427 204.837L253.714 206.118C255.731 210.387 254.972 215.638 251.445 219.165L253.567 221.286ZM166.253 308.6L253.567 221.286L251.445 219.165L164.132 306.478L166.253 308.6ZM155.821 312.846C159.589 312.892 163.376 311.476 166.253 308.6L164.132 306.478C161.85 308.76 158.851 309.883 155.858 309.846L155.821 312.846Z" fill="black" mask="url(#path-2-outside-1_37_66)"/>
<circle cx="153.142" cy="226.142" r="9" transform="rotate(-44.9216 153.142 226.142)" fill="black" stroke="white" stroke-width="2"/>
<circle cx="158.142" cy="124.142" r="9" transform="rotate(-44.9216 158.142 124.142)" fill="white" stroke="black" stroke-width="2"/>
</g>
<path d="M512.842 283.907C512.842 284.759 513.158 285.378 513.791 285.763C514.423 286.23 515.77 286.711 517.832 287.206C520.004 287.729 521.584 288.443 522.574 289.351C523.591 290.258 524.1 291.564 524.1 293.268C524.1 295.055 523.426 296.498 522.079 297.598C520.76 298.698 519.028 299.247 516.883 299.247C513.777 299.247 510.973 298.148 508.471 295.948L510.615 293.392C512.705 295.179 514.822 296.072 516.966 296.072C518.038 296.072 518.904 295.838 519.564 295.371C520.224 294.876 520.554 294.244 520.554 293.474C520.554 292.704 520.251 292.1 519.646 291.66C519.069 291.22 518.024 290.821 516.512 290.464C513.901 289.859 512.086 289.144 511.069 288.32C509.887 287.412 509.296 286.024 509.296 284.155C509.296 282.34 509.956 280.924 511.275 279.907C512.595 278.863 514.285 278.34 516.347 278.34C519.124 278.34 521.502 279.151 523.481 280.773L521.667 283.33C521.062 282.78 520.251 282.34 519.234 282.01C518.217 281.653 517.213 281.474 516.224 281.474C515.206 281.474 514.382 281.694 513.749 282.134C513.145 282.546 512.842 283.137 512.842 283.907ZM540.509 278.835V282.01H529.746V287.371H539.396V290.381H529.746V295.784H540.839V299H526.324V278.835H540.509ZM558.077 293.433L560.263 295.66C558.174 298.052 555.589 299.247 552.51 299.247C549.459 299.247 546.916 298.271 544.882 296.32C542.875 294.34 541.871 291.852 541.871 288.856C541.871 285.832 542.902 283.33 544.964 281.351C547.026 279.344 549.624 278.34 552.758 278.34C555.837 278.34 558.435 279.495 560.552 281.804L558.407 284.155C557.445 283.22 556.538 282.574 555.686 282.216C554.833 281.859 553.83 281.68 552.675 281.68C550.614 281.68 548.882 282.34 547.48 283.66C546.105 284.979 545.418 286.656 545.418 288.691C545.418 290.698 546.105 292.402 547.48 293.804C548.854 295.206 550.49 295.907 552.387 295.907C553.541 295.907 554.531 295.715 555.356 295.33C556.208 294.945 557.115 294.313 558.077 293.433ZM570.73 295.99C572.297 295.99 573.534 295.454 574.441 294.381C575.376 293.309 575.843 291.852 575.843 290.01V278.835H579.266V290.134C579.266 292.993 578.482 295.22 576.915 296.814C575.348 298.409 573.286 299.206 570.73 299.206C568.173 299.206 566.111 298.409 564.544 296.814C562.977 295.22 562.193 292.993 562.193 290.134V278.835H565.575V290.01C565.575 291.88 566.042 293.337 566.977 294.381C567.884 295.454 569.135 295.99 570.73 295.99ZM594.381 291.66L599.659 299H595.329L590.505 292.196H586.051V299H582.628V278.835H590.133C593.185 278.835 595.371 279.357 596.69 280.402C598.037 281.419 598.711 283.082 598.711 285.392C598.711 288.718 597.268 290.808 594.381 291.66ZM590.257 289.144C592.154 289.144 593.46 288.856 594.175 288.278C594.89 287.701 595.247 286.725 595.247 285.351C595.247 284.031 594.89 283.137 594.175 282.67C593.46 282.175 592.182 281.928 590.34 281.928H586.051V289.144H590.257ZM601.644 278.835H605.067V299H601.644V278.835ZM616.257 281.928V299H612.835V281.928H606.731V278.835H622.36V281.928H616.257ZM632.007 299H628.543V291.041L621.038 278.835H624.79L630.275 287.99L635.801 278.835H639.512L632.007 291.041V299ZM644.625 293.351C644.625 291.179 646.205 289.241 649.367 287.536C648.515 286.546 647.937 285.777 647.635 285.227C647.36 284.677 647.223 283.976 647.223 283.124C647.223 281.639 647.772 280.471 648.872 279.619C649.972 278.766 651.333 278.34 652.955 278.34C654.549 278.34 655.869 278.753 656.913 279.577C657.958 280.375 658.48 281.46 658.48 282.835C658.48 284.759 656.941 286.56 653.862 288.237C655.154 289.804 656.405 291.247 657.614 292.567C658.219 291.66 658.687 290.629 659.016 289.474L661.367 291.165C660.9 292.43 660.336 293.584 659.676 294.629C659.896 294.849 660.336 295.289 660.996 295.948C661.656 296.581 662.192 297.103 662.604 297.515L660.46 299.536L657.821 296.897C656.089 298.464 653.972 299.247 651.47 299.247C649.518 299.247 647.882 298.711 646.563 297.639C645.271 296.567 644.625 295.137 644.625 293.351ZM651.841 296.443C653.051 296.443 654.343 295.88 655.718 294.753C653.491 292.361 651.951 290.656 651.099 289.639C648.927 290.821 647.841 292.1 647.841 293.474C647.841 294.354 648.212 295.069 648.955 295.619C649.697 296.168 650.659 296.443 651.841 296.443ZM650.439 282.918C650.439 283.44 650.549 283.907 650.769 284.32C651.016 284.732 651.484 285.351 652.171 286.175C654.343 285.103 655.429 284.1 655.429 283.165C655.429 282.45 655.181 281.9 654.687 281.515C654.219 281.103 653.642 280.897 652.955 280.897C652.295 280.897 651.704 281.103 651.181 281.515C650.687 281.928 650.439 282.395 650.439 282.918ZM676.305 293.351L680.8 278.835H683.851L688.346 293.351L693.418 278.835H697.088L690.037 299H686.655L682.449 285.186H682.202L677.954 299H674.573L667.521 278.835H671.191L676.305 293.351ZM712.455 278.835V282.01H701.692V287.371H711.341V290.381H701.692V295.784H712.784V299H698.269V278.835H712.455ZM715.136 299V278.835H722.971C725.803 278.835 727.727 279.44 728.744 280.649C729.652 281.667 730.105 282.835 730.105 284.155C730.105 285.749 729.61 286.931 728.621 287.701C728.291 287.948 727.796 288.223 727.136 288.526C728.401 288.801 729.39 289.364 730.105 290.216C730.847 291.069 731.219 292.127 731.219 293.392C731.219 294.986 730.641 296.32 729.487 297.392C728.36 298.464 726.518 299 723.961 299H715.136ZM718.559 287.206H722.847C725.322 287.206 726.559 286.368 726.559 284.691C726.559 283.729 726.256 283.041 725.652 282.629C725.074 282.189 724.153 281.969 722.889 281.969H718.559V287.206ZM718.559 295.866H723.878C725.198 295.866 726.174 295.66 726.806 295.247C727.439 294.808 727.755 294.065 727.755 293.021C727.755 291.234 726.325 290.34 723.466 290.34H718.559V295.866Z" fill="#0987E3"/>
<defs>
<filter id="filter0_d_37_66" x="292.217" y="115.876" width="648.875" height="139.67" filterUnits="userSpaceOnUse" color-interpolation-filters="sRGB">
<feFlood flood-opacity="0" result="BackgroundImageFix"/>
<feColorMatrix in="SourceAlpha" type="matrix" values="0 0 0 0 0 0 0 0 0 0 0 0 0 0 0 0 0 0 127 0" result="hardAlpha"/>
<feOffset dx="2" dy="5"/>
<feGaussianBlur stdDeviation="2"/>
<feColorMatrix type="matrix" values="0 0 0 0 0 0 0 0 0 0 0 0 0 0 0 0 0 0 0.55 0"/>
<feBlend mode="normal" in2="BackgroundImageFix" result="effect1_dropShadow_37_66"/>
<feBlend mode="normal" in="SourceGraphic" in2="effect1_dropShadow_37_66" result="shape"/>
</filter>
<filter id="filter1_d_37_66" x="49.5" y="37.5001" width="214.233" height="286.346" filterUnits="userSpaceOnUse" color-interpolation-filters="sRGB">
<feFlood flood-opacity="0" result="BackgroundImageFix"/>
<feColorMatrix in="SourceAlpha" type="matrix" values="0 0 0 0 0 0 0 0 0 0 0 0 0 0 0 0 0 0 127 0" result="hardAlpha"/>
<feOffset dy="7"/>
<feGaussianBlur stdDeviation="2"/>
<feComposite in2="hardAlpha" operator="out"/>
<feColorMatrix type="matrix" values="0 0 0 0 0 0 0 0 0 0 0 0 0 0 0 0 0 0 0.54 0"/>
<feBlend mode="normal" in2="BackgroundImageFix" result="effect1_dropShadow_37_66"/>
<feBlend mode="normal" in="SourceGraphic" in2="effect1_dropShadow_37_66" result="shape"/>
</filter>
</defs>
</svg>
