<svg width="150" height="55" viewBox="0 0 150 55" fill="none" xmlns="http://www.w3.org/2000/svg">
<mask id="path-1-outside-1_55_22" maskUnits="userSpaceOnUse" x="8" y="3" width="36" height="47" fill="black">
<rect fill="white" x="8" y="3" width="36" height="47"/>
<path fill-rule="evenodd" clip-rule="evenodd" d="M16.8931 23.7641L14.1988 21.0698L26.0569 9.21164L37.6007 20.7554L34.5688 23.7873L29.0826 18.3011C29.0844 18.2581 29.0854 18.2149 29.0854 18.1715C29.0854 16.5621 27.7807 15.2574 26.1714 15.2574C24.562 15.2574 23.2573 16.5621 23.2573 18.1715C23.2573 19.623 24.3186 20.8266 25.7075 21.0488L37.3 32.6413L36.0044 33.9369L32.8432 30.7757C31.9978 29.9303 30.6272 29.9303 29.7818 30.7757C28.9365 31.6211 28.9365 32.9917 29.7818 33.8371L32.9431 36.9983L25.7913 44.1501L14.2106 32.5694L16.8931 29.8868L22.4342 35.4279C22.5689 36.9123 23.8167 38.0752 25.3362 38.0752C26.9456 38.0752 28.2502 36.7706 28.2502 35.1612C28.2502 33.5653 26.9673 32.269 25.3765 32.2474L19.9545 26.8255L21.3213 25.4587L23.3185 27.4559C24.1639 28.3012 25.5345 28.3012 26.3799 27.4559C27.2253 26.6105 27.2253 25.2399 26.3799 24.3945L22.8956 20.9102C22.402 20.4166 21.7294 20.2112 21.0867 20.294C20.5944 20.335 20.1134 20.5438 19.7367 20.9205L16.8931 23.7641ZM25.7964 49.3498C25.232 49.3579 24.6651 49.1467 24.2345 48.716L9.63406 34.1156C9.04591 33.5275 8.86695 32.6851 9.09718 31.9422C9.19502 31.6008 9.37838 31.2788 9.64726 31.0099L13.8317 26.8255L9.63406 22.6278C9.20465 22.1984 8.99336 21.6335 9.00018 21.0707C8.99288 20.5073 9.20416 19.9416 9.63403 19.5118L24.5118 4.63403C25.0121 4.13374 25.6963 3.92952 26.3468 4.02137C26.8073 4.07915 27.2529 4.28485 27.6065 4.63848L42.2069 19.2389C43.0523 20.0843 43.0523 21.4549 42.2069 22.3003C42.1521 22.3551 42.095 22.4064 42.0361 22.4541C42.0273 22.4632 42.0184 22.4723 42.0094 22.4813L37.6361 26.8546L41.8794 31.098C42.0676 31.2862 42.2139 31.5004 42.3183 31.729C42.693 32.5307 42.5494 33.5147 41.8874 34.1767L27.3482 48.7159C26.9202 49.1439 26.3574 49.3553 25.7964 49.3498Z"/>
</mask>
<path fill-rule="evenodd" clip-rule="evenodd" d="M16.8931 23.7641L14.1988 21.0698L26.0569 9.21164L37.6007 20.7554L34.5688 23.7873L29.0826 18.3011C29.0844 18.2581 29.0854 18.2149 29.0854 18.1715C29.0854 16.5621 27.7807 15.2574 26.1714 15.2574C24.562 15.2574 23.2573 16.5621 23.2573 18.1715C23.2573 19.623 24.3186 20.8266 25.7075 21.0488L37.3 32.6413L36.0044 33.9369L32.8432 30.7757C31.9978 29.9303 30.6272 29.9303 29.7818 30.7757C28.9365 31.6211 28.9365 32.9917 29.7818 33.8371L32.9431 36.9983L25.7913 44.1501L14.2106 32.5694L16.8931 29.8868L22.4342 35.4279C22.5689 36.9123 23.8167 38.0752 25.3362 38.0752C26.9456 38.0752 28.2502 36.7706 28.2502 35.1612C28.2502 33.5653 26.9673 32.269 25.3765 32.2474L19.9545 26.8255L21.3213 25.4587L23.3185 27.4559C24.1639 28.3012 25.5345 28.3012 26.3799 27.4559C27.2253 26.6105 27.2253 25.2399 26.3799 24.3945L22.8956 20.9102C22.402 20.4166 21.7294 20.2112 21.0867 20.294C20.5944 20.335 20.1134 20.5438 19.7367 20.9205L16.8931 23.7641ZM25.7964 49.3498C25.232 49.3579 24.6651 49.1467 24.2345 48.716L9.63406 34.1156C9.04591 33.5275 8.86695 32.6851 9.09718 31.9422C9.19502 31.6008 9.37838 31.2788 9.64726 31.0099L13.8317 26.8255L9.63406 22.6278C9.20465 22.1984 8.99336 21.6335 9.00018 21.0707C8.99288 20.5073 9.20416 19.9416 9.63403 19.5118L24.5118 4.63403C25.0121 4.13374 25.6963 3.92952 26.3468 4.02137C26.8073 4.07915 27.2529 4.28485 27.6065 4.63848L42.2069 19.2389C43.0523 20.0843 43.0523 21.4549 42.2069 22.3003C42.1521 22.3551 42.095 22.4064 42.0361 22.4541C42.0273 22.4632 42.0184 22.4723 42.0094 22.4813L37.6361 26.8546L41.8794 31.098C42.0676 31.2862 42.2139 31.5004 42.3183 31.729C42.693 32.5307 42.5494 33.5147 41.8874 34.1767L27.3482 48.7159C26.9202 49.1439 26.3574 49.3553 25.7964 49.3498Z" fill="#00C2FF"/>
<path d="M14.1988 21.0698L13.9867 20.8576L13.7745 21.0698L13.9867 21.2819L14.1988 21.0698ZM16.8931 23.7641L16.681 23.9762L16.8931 24.1883L17.1052 23.9762L16.8931 23.7641ZM26.0569 9.21164L26.269 8.99951L26.0569 8.78738L25.8448 8.99951L26.0569 9.21164ZM37.6007 20.7554L37.8128 20.9675L38.0249 20.7554L37.8128 20.5433L37.6007 20.7554ZM34.5688 23.7873L34.3566 23.9994L34.5688 24.2116L34.7809 23.9994L34.5688 23.7873ZM29.0826 18.3011L28.7829 18.288L28.7771 18.4199L28.8704 18.5132L29.0826 18.3011ZM25.7075 21.0488L25.9196 20.8366L25.8509 20.7679L25.7549 20.7525L25.7075 21.0488ZM37.3 32.6413L37.5122 32.8535L37.7243 32.6413L37.5122 32.4292L37.3 32.6413ZM36.0044 33.9369L35.7923 34.149L36.0044 34.3612L36.2166 34.149L36.0044 33.9369ZM29.7818 30.7757L29.994 30.9878L29.994 30.9878L29.7818 30.7757ZM29.7818 33.8371L29.5697 34.0492L29.5697 34.0492L29.7818 33.8371ZM32.9431 36.9983L33.1552 37.2104L33.3673 36.9983L33.1552 36.7862L32.9431 36.9983ZM25.7913 44.1501L25.5792 44.3622L25.7913 44.5743L26.0034 44.3622L25.7913 44.1501ZM14.2106 32.5694L13.9985 32.3572L13.7863 32.5694L13.9985 32.7815L14.2106 32.5694ZM16.8931 29.8868L17.1052 29.6747L16.8931 29.4626L16.681 29.6747L16.8931 29.8868ZM22.4342 35.4279L22.7329 35.4008L22.7231 35.2926L22.6463 35.2158L22.4342 35.4279ZM25.3765 32.2474L25.1643 32.4596L25.2505 32.5458L25.3724 32.5474L25.3765 32.2474ZM19.9545 26.8255L19.7424 26.6133L19.5302 26.8255L19.7424 27.0376L19.9545 26.8255ZM21.3213 25.4587L21.5334 25.2465L21.3213 25.0344L21.1092 25.2465L21.3213 25.4587ZM21.0867 20.294L21.1117 20.5933L21.1251 20.5915L21.0867 20.294ZM24.2345 48.716L24.4466 48.5039L24.2345 48.716ZM25.7964 49.3498L25.7993 49.0497L25.7921 49.0499L25.7964 49.3498ZM9.63406 34.1156L9.84619 33.9035L9.84619 33.9035L9.63406 34.1156ZM9.09718 31.9422L9.3838 32.031L9.38556 32.0249L9.09718 31.9422ZM9.64726 31.0099L9.43513 30.7978L9.43513 30.7978L9.64726 31.0099ZM13.8317 26.8255L14.0439 27.0376L14.256 26.8255L14.0439 26.6133L13.8317 26.8255ZM9.63406 22.6278L9.42192 22.8399L9.42192 22.8399L9.63406 22.6278ZM9.00018 21.0707L9.30026 21.0743L9.30016 21.0668L9.00018 21.0707ZM9.63403 19.5118L9.4219 19.2996L9.4219 19.2996L9.63403 19.5118ZM24.5118 4.63403L24.7239 4.84616L24.7239 4.84616L24.5118 4.63403ZM26.3468 4.02137L26.3048 4.31846L26.3094 4.31904L26.3468 4.02137ZM27.6065 4.63848L27.3944 4.85061L27.3944 4.85061L27.6065 4.63848ZM42.2069 19.2389L42.4191 19.0268L42.4191 19.0268L42.2069 19.2389ZM42.0361 22.4541L41.8473 22.2209L41.8329 22.2326L41.82 22.246L42.0361 22.4541ZM42.0094 22.4813L41.7973 22.2691L41.7973 22.2691L42.0094 22.4813ZM37.6361 26.8546L37.4239 26.6425L37.2118 26.8546L37.4239 27.0667L37.6361 26.8546ZM41.8794 31.098L41.6673 31.3101L41.6673 31.3101L41.8794 31.098ZM42.3183 31.729L42.0454 31.8536L42.0465 31.8561L42.3183 31.729ZM41.8874 34.1767L41.6753 33.9646L41.6753 33.9646L41.8874 34.1767ZM13.9867 21.2819L16.681 23.9762L17.1052 23.552L14.4109 20.8576L13.9867 21.2819ZM25.8448 8.99951L13.9867 20.8576L14.4109 21.2819L26.269 9.42377L25.8448 8.99951ZM37.8128 20.5433L26.269 8.99951L25.8448 9.42377L37.3885 20.9675L37.8128 20.5433ZM34.7809 23.9994L37.8128 20.9675L37.3885 20.5433L34.3566 23.5752L34.7809 23.9994ZM28.8704 18.5132L34.3566 23.9994L34.7809 23.5752L29.2947 18.089L28.8704 18.5132ZM28.7854 18.1715C28.7854 18.2105 28.7845 18.2494 28.7829 18.288L29.3823 18.3142C29.3844 18.2669 29.3854 18.2193 29.3854 18.1715H28.7854ZM26.1714 15.5574C27.6151 15.5574 28.7854 16.7278 28.7854 18.1715H29.3854C29.3854 16.3964 27.9464 14.9574 26.1714 14.9574V15.5574ZM23.5573 18.1715C23.5573 16.7278 24.7277 15.5574 26.1714 15.5574V14.9574C24.3963 14.9574 22.9573 16.3964 22.9573 18.1715H23.5573ZM25.7549 20.7525C24.5092 20.5533 23.5573 19.4732 23.5573 18.1715H22.9573C22.9573 19.7727 24.1279 21.0999 25.6601 21.345L25.7549 20.7525ZM37.5122 32.4292L25.9196 20.8366L25.4953 21.2609L37.0879 32.8535L37.5122 32.4292ZM36.2166 34.149L37.5122 32.8535L37.0879 32.4292L35.7923 33.7248L36.2166 34.149ZM32.6311 30.9878L35.7923 34.149L36.2166 33.7248L33.0553 30.5635L32.6311 30.9878ZM29.994 30.9878C30.7222 30.2596 31.9029 30.2596 32.6311 30.9878L33.0553 30.5635C32.0928 29.601 30.5322 29.601 29.5697 30.5635L29.994 30.9878ZM29.994 33.6249C29.2657 32.8967 29.2657 31.716 29.994 30.9878L29.5697 30.5635C28.6072 31.5261 28.6072 33.0867 29.5697 34.0492L29.994 33.6249ZM33.1552 36.7862L29.994 33.6249L29.5697 34.0492L32.7309 37.2104L33.1552 36.7862ZM26.0034 44.3622L33.1552 37.2104L32.7309 36.7862L25.5792 43.9379L26.0034 44.3622ZM13.9985 32.7815L25.5792 44.3622L26.0034 43.9379L14.4227 32.3572L13.9985 32.7815ZM16.681 29.6747L13.9985 32.3572L14.4227 32.7815L17.1052 30.099L16.681 29.6747ZM22.6463 35.2158L17.1052 29.6747L16.681 30.099L22.222 35.64L22.6463 35.2158ZM25.3362 37.7752C23.9733 37.7752 22.8537 36.732 22.7329 35.4008L22.1354 35.455C22.284 37.0925 23.6601 38.3752 25.3362 38.3752V37.7752ZM27.9502 35.1612C27.9502 36.6049 26.7799 37.7752 25.3362 37.7752V38.3752C27.1112 38.3752 28.5502 36.9363 28.5502 35.1612H27.9502ZM25.3724 32.5474C26.7993 32.5667 27.9502 33.7296 27.9502 35.1612H28.5502C28.5502 33.4009 27.1352 31.9712 25.3805 31.9475L25.3724 32.5474ZM19.7424 27.0376L25.1643 32.4596L25.5886 32.0353L20.1666 26.6133L19.7424 27.0376ZM21.1092 25.2465L19.7424 26.6133L20.1666 27.0376L21.5334 25.6708L21.1092 25.2465ZM23.5306 27.2437L21.5334 25.2465L21.1092 25.6708L23.1064 27.668L23.5306 27.2437ZM26.1677 27.2437C25.4395 27.9719 24.2588 27.9719 23.5306 27.2437L23.1064 27.668C24.0689 28.6305 25.6295 28.6305 26.592 27.668L26.1677 27.2437ZM26.1677 24.6066C26.896 25.3348 26.896 26.5155 26.1677 27.2437L26.592 27.668C27.5545 26.7055 27.5545 25.1449 26.592 24.1823L26.1677 24.6066ZM22.6835 21.1223L26.1677 24.6066L26.592 24.1823L23.1077 20.6981L22.6835 21.1223ZM21.1251 20.5915C21.6794 20.5201 22.2584 20.6973 22.6835 21.1223L23.1077 20.6981C22.5456 20.1359 21.7793 19.9023 21.0484 19.9965L21.1251 20.5915ZM19.9488 21.1327C20.2735 20.808 20.6873 20.6283 21.1116 20.593L21.0619 19.995C20.5014 20.0417 19.9533 20.2796 19.5245 20.7084L19.9488 21.1327ZM17.1052 23.9762L19.9488 21.1327L19.5245 20.7084L16.681 23.552L17.1052 23.9762ZM24.0223 48.9281C24.5126 49.4184 25.1587 49.659 25.8007 49.6498L25.7921 49.0499C25.3054 49.0568 24.8176 48.8749 24.4466 48.5039L24.0223 48.9281ZM9.42192 34.3277L24.0223 48.9281L24.4466 48.5039L9.84619 33.9035L9.42192 34.3277ZM8.81062 31.8534C8.54874 32.6984 8.75197 33.6578 9.42192 34.3277L9.84619 33.9035C9.33984 33.3971 9.18515 32.6717 9.38373 32.031L8.81062 31.8534ZM9.43513 30.7978C9.12934 31.1036 8.92029 31.4705 8.80879 31.8595L9.38556 32.0249C9.46974 31.7312 9.62741 31.454 9.8594 31.2221L9.43513 30.7978ZM13.6196 26.6133L9.43513 30.7978L9.8594 31.2221L14.0439 27.0376L13.6196 26.6133ZM9.42192 22.8399L13.6196 27.0376L14.0439 26.6133L9.84619 22.4157L9.42192 22.8399ZM8.70021 21.067C8.69244 21.7073 8.93305 22.351 9.42192 22.8399L9.84619 22.4157C9.47625 22.0457 9.29428 21.5596 9.30016 21.0743L8.70021 21.067ZM9.4219 19.2996C8.9325 19.789 8.6919 20.4336 8.70021 21.0746L9.30016 21.0668C9.29386 20.581 9.47583 20.0942 9.84616 19.7239L9.4219 19.2996ZM24.2996 4.4219L9.4219 19.2996L9.84616 19.7239L24.7239 4.84616L24.2996 4.4219ZM26.3887 3.72432C25.6489 3.61985 24.8694 3.85214 24.2996 4.4219L24.7239 4.84616C25.1547 4.41534 25.7437 4.23918 26.3048 4.31843L26.3887 3.72432ZM27.8186 4.42635C27.4162 4.02393 26.9085 3.78948 26.3841 3.72371L26.3094 4.31904C26.7062 4.36881 27.0895 4.54577 27.3944 4.85061L27.8186 4.42635ZM42.4191 19.0268L27.8186 4.42635L27.3944 4.85061L41.9948 19.451L42.4191 19.0268ZM42.4191 22.5124C43.3816 21.5499 43.3816 19.9893 42.4191 19.0268L41.9948 19.451C42.723 20.1792 42.723 21.3599 41.9948 22.0881L42.4191 22.5124ZM42.2248 22.6873C42.2919 22.633 42.3568 22.5747 42.4191 22.5124L41.9948 22.0881C41.9474 22.1355 41.8982 22.1798 41.8473 22.2209L42.2248 22.6873ZM42.2215 22.6934C42.2319 22.6831 42.2421 22.6727 42.2521 22.6622L41.82 22.246C41.8125 22.2538 41.8049 22.2615 41.7973 22.2691L42.2215 22.6934ZM37.8482 27.0667L42.2215 22.6934L41.7973 22.2691L37.4239 26.6425L37.8482 27.0667ZM42.0916 30.8858L37.8482 26.6425L37.4239 27.0667L41.6673 31.3101L42.0916 30.8858ZM42.5912 31.6044C42.4722 31.3437 42.3054 31.0997 42.0916 30.8858L41.6673 31.3101C41.8298 31.4726 41.9557 31.6571 42.0454 31.8536L42.5912 31.6044ZM42.0996 34.3888C42.8536 33.6348 43.0165 32.5144 42.5901 31.602L42.0465 31.8561C42.3695 32.5471 42.2452 33.3947 41.6753 33.9646L42.0996 34.3888ZM27.5604 48.928L42.0996 34.3888L41.6753 33.9646L27.1361 48.5038L27.5604 48.928ZM25.7935 49.6498C26.4318 49.656 27.073 49.4154 27.5604 48.928L27.1361 48.5038C26.7673 48.8725 26.2831 49.0545 25.7993 49.0498L25.7935 49.6498Z" fill="black" mask="url(#path-1-outside-1_55_22)"/>
<circle cx="25.3418" cy="35.1626" r="1.16517" transform="rotate(-44.9216 25.3418 35.1626)" fill="black" stroke="white"/>
<circle cx="26.1757" cy="18.1783" r="1.16517" transform="rotate(-44.9216 26.1757 18.1783)" fill="white" stroke="black"/>
<path d="M69.4084 39.9814C69.4084 40.1519 69.4717 40.2756 69.5981 40.3526C69.7246 40.446 69.994 40.5423 70.4064 40.6412C70.8407 40.7457 71.1569 40.8887 71.3548 41.0701C71.5583 41.2515 71.66 41.5127 71.66 41.8536C71.66 42.211 71.5253 42.4997 71.2559 42.7196C70.9919 42.9395 70.6455 43.0495 70.2167 43.0495C69.5954 43.0495 69.0346 42.8296 68.5342 42.3897L68.9631 41.8784C69.3809 42.2357 69.8043 42.4144 70.2332 42.4144C70.4476 42.4144 70.6208 42.3677 70.7528 42.2742C70.8847 42.1753 70.9507 42.0488 70.9507 41.8948C70.9507 41.7409 70.8902 41.6199 70.7693 41.532C70.6538 41.444 70.4449 41.3643 70.1425 41.2928C69.6201 41.1718 69.2572 41.0289 69.0538 40.8639C68.8174 40.6825 68.6992 40.4048 68.6992 40.0309C68.6992 39.668 68.8311 39.3849 69.095 39.1814C69.359 38.9725 69.6971 38.868 70.1095 38.868C70.6648 38.868 71.1404 39.0302 71.5363 39.3546L71.1734 39.866C71.0524 39.756 70.8902 39.668 70.6868 39.6021C70.4834 39.5306 70.2827 39.4948 70.0847 39.4948C69.8813 39.4948 69.7163 39.5388 69.5899 39.6268C69.4689 39.7093 69.4084 39.8275 69.4084 39.9814ZM75.5818 38.967V39.6021H73.4293V40.6742H75.3592V41.2763H73.4293V42.3567H75.6478V43H72.7447V38.967H75.5818ZM79.7355 41.8866L80.1726 42.332C79.7547 42.8103 79.2379 43.0495 78.6221 43.0495C78.0118 43.0495 77.5032 42.8543 77.0963 42.4639C76.6949 42.068 76.4943 41.5704 76.4943 40.9711C76.4943 40.3663 76.7004 39.866 77.1128 39.4701C77.5252 39.0687 78.0448 38.868 78.6716 38.868C79.2874 38.868 79.807 39.099 80.2303 39.5608L79.8015 40.0309C79.609 39.844 79.4276 39.7148 79.2571 39.6433C79.0867 39.5718 78.886 39.5361 78.6551 39.5361C78.2427 39.5361 77.8963 39.668 77.6159 39.932C77.341 40.1959 77.2035 40.5313 77.2035 40.9381C77.2035 41.3395 77.341 41.6804 77.6159 41.9608C77.8908 42.2412 78.218 42.3814 78.5973 42.3814C78.8283 42.3814 79.0262 42.343 79.1912 42.266C79.3616 42.189 79.543 42.0625 79.7355 41.8866ZM82.9059 42.3979C83.2193 42.3979 83.4667 42.2907 83.6482 42.0763C83.8351 41.8619 83.9286 41.5704 83.9286 41.2021V38.967H84.6131V41.2268C84.6131 41.7986 84.4564 42.244 84.143 42.5629C83.8296 42.8818 83.4172 43.0412 82.9059 43.0412C82.3946 43.0412 81.9822 42.8818 81.6688 42.5629C81.3554 42.244 81.1987 41.7986 81.1987 41.2268V38.967H81.875V41.2021C81.875 41.5759 81.9684 41.8674 82.1554 42.0763C82.3368 42.2907 82.587 42.3979 82.9059 42.3979ZM88.2762 41.532L89.3319 43H88.4659L87.5009 41.6392H86.6102V43H85.9257V38.967H87.4267C88.037 38.967 88.4741 39.0715 88.738 39.2804C89.0075 39.4838 89.1422 39.8165 89.1422 40.2784C89.1422 40.9436 88.8535 41.3615 88.2762 41.532ZM87.4514 41.0289C87.8308 41.0289 88.092 40.9711 88.2349 40.8557C88.3779 40.7402 88.4494 40.545 88.4494 40.2701C88.4494 40.0062 88.3779 39.8275 88.2349 39.734C88.092 39.6351 87.8363 39.5856 87.4679 39.5856H86.6102V41.0289H87.4514ZM90.3688 38.967H91.0533V43H90.3688V38.967ZM93.9314 39.5856V43H93.2469V39.5856H92.0263V38.967H95.1521V39.5856H93.9314ZM97.7214 43H97.0286V41.4082L95.5275 38.967H96.2781L97.375 40.7979L98.4801 38.967H99.2224L97.7214 41.4082V43ZM101.525 41.8701C101.525 41.4357 101.841 41.0481 102.473 40.7072C102.303 40.5093 102.187 40.3553 102.127 40.2454C102.072 40.1354 102.045 39.9952 102.045 39.8247C102.045 39.5278 102.154 39.2942 102.374 39.1237C102.594 38.9533 102.867 38.868 103.191 38.868C103.51 38.868 103.774 38.9505 103.983 39.1155C104.192 39.2749 104.296 39.4921 104.296 39.767C104.296 40.1519 103.988 40.512 103.372 40.8474C103.631 41.1608 103.881 41.4495 104.123 41.7134C104.244 41.532 104.337 41.3258 104.403 41.0948L104.873 41.433C104.78 41.6859 104.667 41.9168 104.535 42.1258C104.579 42.1698 104.667 42.2577 104.799 42.3897C104.931 42.5162 105.038 42.6206 105.121 42.7031L104.692 43.1072L104.164 42.5794C103.818 42.8928 103.394 43.0495 102.894 43.0495C102.504 43.0495 102.176 42.9423 101.913 42.7278C101.654 42.5134 101.525 42.2275 101.525 41.8701ZM102.968 42.4887C103.21 42.4887 103.469 42.3759 103.743 42.1505C103.298 41.6722 102.99 41.3313 102.82 41.1278C102.385 41.3643 102.168 41.6199 102.168 41.8948C102.168 42.0708 102.242 42.2137 102.391 42.3237C102.539 42.4337 102.732 42.4887 102.968 42.4887ZM102.688 39.7835C102.688 39.888 102.71 39.9814 102.754 40.0639C102.803 40.1464 102.897 40.2701 103.034 40.4351C103.469 40.2206 103.686 40.0199 103.686 39.833C103.686 39.69 103.636 39.5801 103.537 39.5031C103.444 39.4206 103.328 39.3794 103.191 39.3794C103.059 39.3794 102.941 39.4206 102.836 39.5031C102.737 39.5856 102.688 39.679 102.688 39.7835ZM109.141 41.8701L110.04 38.967H110.65L111.549 41.8701L112.564 38.967H113.298L111.887 43H111.211L110.37 40.2371H110.32L109.471 43H108.795L107.384 38.967H108.118L109.141 41.8701ZM117.011 38.967V39.6021H114.858V40.6742H116.788V41.2763H114.858V42.3567H117.077V43H114.174V38.967H117.011ZM118.187 43V38.967H119.754C120.321 38.967 120.705 39.088 120.909 39.3299C121.09 39.5333 121.181 39.767 121.181 40.0309C121.181 40.3498 121.082 40.5863 120.884 40.7402C120.818 40.7897 120.719 40.8447 120.587 40.9052C120.84 40.9601 121.038 41.0729 121.181 41.2433C121.329 41.4137 121.404 41.6254 121.404 41.8784C121.404 42.1973 121.288 42.4639 121.057 42.6784C120.832 42.8928 120.464 43 119.952 43H118.187ZM118.872 40.6412H119.729C120.224 40.6412 120.472 40.4735 120.472 40.1381C120.472 39.9457 120.411 39.8082 120.29 39.7258C120.175 39.6378 119.991 39.5938 119.738 39.5938H118.872V40.6412ZM118.872 42.3732H119.936C120.2 42.3732 120.395 42.332 120.521 42.2495C120.648 42.1615 120.711 42.0131 120.711 41.8041C120.711 41.4467 120.425 41.268 119.853 41.268H118.872V42.3732Z" fill="black"/>
<path d="M51.8351 20.7938C51.8351 21.5395 52.1117 22.0808 52.6649 22.4175C53.2182 22.8265 54.3969 23.2474 56.201 23.6804C58.1014 24.1375 59.4845 24.7629 60.3505 25.5567C61.2406 26.3505 61.6856 27.4931 61.6856 28.9845C61.6856 30.5481 61.0962 31.811 59.9175 32.7732C58.7629 33.7354 57.2474 34.2165 55.3711 34.2165C52.6529 34.2165 50.1993 33.2543 48.0103 31.3299L49.8866 29.0928C51.7148 30.6564 53.567 31.4381 55.4433 31.4381C56.3814 31.4381 57.1392 31.2337 57.7165 30.8247C58.2938 30.3918 58.5825 29.8385 58.5825 29.1649C58.5825 28.4914 58.3179 27.9622 57.7887 27.5773C57.2835 27.1924 56.3694 26.8436 55.0464 26.5309C52.7612 26.0017 51.1735 25.3763 50.2835 24.6546C49.2491 23.8608 48.732 22.646 48.732 21.0103C48.732 19.4227 49.3093 18.1838 50.4639 17.2938C51.6186 16.3797 53.0979 15.9227 54.9021 15.9227C57.3316 15.9227 59.4124 16.6323 61.1443 18.0515L59.5567 20.2887C59.0275 19.8076 58.3179 19.4227 57.4278 19.134C56.5378 18.8213 55.6598 18.6649 54.7938 18.6649C53.9038 18.6649 53.1821 18.8574 52.6289 19.2423C52.0997 19.6031 51.8351 20.1203 51.8351 20.7938ZM66.646 29.9948L64.878 34H61.7027L69.4965 16.3557H72.6718L80.4295 34H77.2543L75.4862 29.9948H66.646ZM74.2955 27.2165L71.0842 19.9639L67.8728 27.2165H74.2955ZM91.9453 27.5773L96.5639 34H92.7752L88.5536 28.0464H84.6567V34H81.6618V16.3557H88.2288C90.8989 16.3557 92.8113 16.8127 93.9659 17.7268C95.1446 18.6168 95.734 20.0722 95.734 22.0928C95.734 25.0034 94.4711 26.8316 91.9453 27.5773ZM88.3371 25.3763C89.9969 25.3763 91.1395 25.1237 91.7649 24.6186C92.3903 24.1134 92.703 23.2594 92.703 22.0567C92.703 20.9021 92.3903 20.1203 91.7649 19.7113C91.1395 19.2784 90.0209 19.0619 88.4092 19.0619H84.6567V25.3763H88.3371ZM104.887 16.3557C107.533 16.3557 109.47 16.8729 110.697 17.9072C111.947 18.9175 112.573 20.4931 112.573 22.634C112.573 24.7509 111.947 26.3144 110.697 27.3247C109.446 28.311 107.521 28.8041 104.923 28.8041H101.82V34H98.8255V16.3557H104.887ZM105.248 26.134C106.836 26.134 107.942 25.8333 108.568 25.232C109.217 24.6306 109.542 23.6804 109.542 22.3814C109.542 21.1787 109.169 20.3247 108.423 19.8196C107.678 19.3144 106.475 19.0619 104.815 19.0619H101.82V26.134H105.248ZM114.895 16.3557H117.89V34H114.895V16.3557ZM134.774 16.3557H137.733V34H134.521L124.527 21.1186V34H121.532V16.3557H124.527L134.774 29.5258V16.3557Z" fill="black"/>
</svg>
