<svg width="30" height="31" viewBox="0 0 30 31" fill="none" xmlns="http://www.w3.org/2000/svg">
<path d="M23.75 14.0029H8.925L13.4625 8.55291C13.6747 8.29764 13.7768 7.96854 13.7463 7.638C13.7158 7.30747 13.5553 7.00258 13.3 6.79041C13.0447 6.57823 12.7156 6.47616 12.3851 6.50663C12.0546 6.53711 11.7497 6.69764 11.5375 6.95291L5.2875 14.4529C5.24545 14.5126 5.20785 14.5752 5.175 14.6404C5.175 14.7029 5.175 14.7404 5.0875 14.8029C5.03084 14.9462 5.00118 15.0988 5 15.2529C5.00118 15.407 5.03084 15.5596 5.0875 15.7029C5.0875 15.7654 5.0875 15.8029 5.175 15.8654C5.20785 15.9306 5.24545 15.9933 5.2875 16.0529L11.5375 23.5529C11.655 23.694 11.8022 23.8075 11.9686 23.8853C12.1349 23.963 12.3164 24.0032 12.5 24.0029C12.7921 24.0035 13.0751 23.9018 13.3 23.7154C13.4266 23.6105 13.5312 23.4816 13.6079 23.3362C13.6846 23.1907 13.7318 23.0316 13.7469 22.8679C13.762 22.7042 13.7447 22.5391 13.6959 22.3821C13.6471 22.2251 13.5678 22.0792 13.4625 21.9529L8.925 16.5029H23.75C24.0815 16.5029 24.3995 16.3712 24.6339 16.1368C24.8683 15.9024 25 15.5844 25 15.2529C25 14.9214 24.8683 14.6034 24.6339 14.369C24.3995 14.1346 24.0815 14.0029 23.75 14.0029Z" fill="#F53838"/>
</svg>
