<svg width="30" height="31" viewBox="0 0 30 31" fill="none" xmlns="http://www.w3.org/2000/svg">
<path d="M6.25 14.0029H21.075L16.5375 8.55291C16.3253 8.29764 16.2232 7.96854 16.2537 7.638C16.2842 7.30747 16.4447 7.00258 16.7 6.79041C16.9553 6.57823 17.2844 6.47616 17.6149 6.50663C17.9454 6.53711 18.2503 6.69764 18.4625 6.95291L24.7125 14.4529C24.7545 14.5126 24.7922 14.5752 24.825 14.6404C24.825 14.7029 24.825 14.7404 24.9125 14.8029C24.9692 14.9462 24.9988 15.0988 25 15.2529C24.9988 15.407 24.9692 15.5596 24.9125 15.7029C24.9125 15.7654 24.9125 15.8029 24.825 15.8654C24.7922 15.9306 24.7545 15.9933 24.7125 16.0529L18.4625 23.5529C18.345 23.694 18.1978 23.8075 18.0314 23.8853C17.8651 23.963 17.6836 24.0032 17.5 24.0029C17.2079 24.0035 16.9249 23.9018 16.7 23.7154C16.5734 23.6105 16.4688 23.4816 16.3921 23.3362C16.3154 23.1907 16.2682 23.0316 16.2531 22.8679C16.238 22.7042 16.2553 22.5391 16.3041 22.3821C16.3529 22.2251 16.4322 22.0792 16.5375 21.9529L21.075 16.5029H6.25C5.91848 16.5029 5.60054 16.3712 5.36612 16.1368C5.13169 15.9024 5 15.5844 5 15.2529C5 14.9214 5.13169 14.6034 5.36612 14.369C5.60054 14.1346 5.91848 14.0029 6.25 14.0029Z" fill="current"/>
</svg>
